<?xml version="1.0" encoding="utf-8"?>
<!-- Generator: Adobe Illustrator 27.5.0, SVG Export Plug-In . SVG Version: 6.00 Build 0)  -->
<svg version="1.1" xmlns="http://www.w3.org/2000/svg" xmlns:xlink="http://www.w3.org/1999/xlink" x="0px" y="0px"
	 viewBox="0 0 499.999 500" style="enable-background:new 0 0 499.999 500;" xml:space="preserve">
<g id="BACKGROUND">
</g>
<g id="OBJECTS">
	<g>
		<ellipse style="opacity:0.5;fill:#D8EFFF;" cx="115.544" cy="174.827" rx="68.114" ry="12.29"/>
		<g>
			<g>
				<path style="fill:#BADDF8;" d="M178.696,57.226c-0.576,8.29-28.547,15.109-63.028,15.284
					c-33.622,0.171-61.131-6.04-63.087-14.035c-5.788,9.021-9.785,19.409-11.374,30.739c-5.844,41.657,22.884,80.115,64.162,85.904
					c41.283,5.79,79.482-23.28,85.325-64.935C193.403,90.862,188.668,72.234,178.696,57.226z"/>
				<g>
					<path style="fill:#94C5E7;" d="M174.903,80.821c-5.414-0.303-8.459,5.184-14,5.771c-4.647,0.711-9.115-3.099-14.023-3.788
						c-4.968-0.24-9.036,2.825-13.749,3.984c-9.74,1.362-16.7-4.164-27.075-1.523c-4.712,1.16-7.638,2.566-12.544,1.878
						c-4.908-0.689-9.626-2.713-14.46-0.664c-4.713,1.159-7.952,4.798-13.18,3.158c-4.781-1.583-6.064-5.401-11.417-6.153
						c-1.803-0.251-3.235-0.066-4.49,0.396c-0.637,2.479-1.146,5.025-1.51,7.625c-5.262,37.517,20.612,72.157,57.791,77.37
						c37.18,5.215,71.583-20.967,76.844-58.484c1.333-9.492,0.658-18.794-1.681-27.484
						C179.418,81.736,177.176,80.977,174.903,80.821z"/>
				</g>
				<g>
					<path style="opacity:0.3;fill:#FFFFFF;" d="M65.74,105.984c-0.069-2.006,1.5-3.688,3.506-3.757
						c2.005-0.07,3.688,1.499,3.757,3.505c0.069,2.005-1.5,3.688-3.506,3.757C67.492,109.559,65.81,107.99,65.74,105.984z"/>
					<path style="opacity:0.3;fill:#FFFFFF;" d="M75.003,100.317c-0.027-0.799,0.598-1.469,1.396-1.497
						c0.799-0.027,1.469,0.598,1.496,1.396c0.028,0.799-0.598,1.469-1.396,1.497C75.7,101.741,75.03,101.116,75.003,100.317z"/>
					<path style="opacity:0.3;fill:#FFFFFF;" d="M75.128,112.275c-0.077-2.234,1.671-4.108,3.905-4.185
						c2.234-0.078,4.108,1.671,4.186,3.905c0.077,2.234-1.671,4.108-3.905,4.186C77.079,116.258,75.206,114.509,75.128,112.275z"/>
				</g>
				<g>
					<path style="opacity:0.3;fill:#FFFFFF;" d="M150.746,148.57c2.006-0.069,3.575-1.751,3.506-3.756
						c-0.07-2.006-1.752-3.575-3.758-3.506c-2.005,0.069-3.574,1.752-3.505,3.757C147.059,147.071,148.74,148.64,150.746,148.57z"/>
					<path style="opacity:0.3;fill:#FFFFFF;" d="M155.759,138.938c0.799-0.028,1.424-0.697,1.396-1.497
						c-0.027-0.798-0.697-1.424-1.496-1.396c-0.799,0.028-1.425,0.698-1.396,1.497C154.29,138.341,154.96,138.965,155.759,138.938z"
						/>
					<path style="opacity:0.3;fill:#FFFFFF;" d="M143.82,139.641c2.234-0.077,3.982-1.952,3.905-4.186
						c-0.077-2.234-1.951-3.982-4.185-3.905c-2.234,0.078-3.982,1.952-3.905,4.186C139.713,137.969,141.587,139.718,143.82,139.641z
						"/>
				</g>
				<path style="fill:#D8EFFF;" d="M115.668,72.51c34.481-0.175,62.452-6.995,63.028-15.284c0.193-2.825-5.263-6.667-7.357-7.813
					c-6.056-3.307-13.81-4.018-20.532-5.022c-11.683-1.749-23.486-2.432-35.29-2.371c-15.554,0.079-33.018,0.461-47.982,5.219
					c-3.189,1.014-16.17,6.261-14.953,11.236C54.537,66.47,82.046,72.681,115.668,72.51z"/>
				<path style="fill:#A4D2F1;" d="M116.27,68.597c30.506-0.248,54.989-5.412,55.169-11.577c0.06-2.099-4.922-4.941-6.821-5.781
					c-5.493-2.437-12.385-2.942-18.371-3.667c-10.407-1.259-20.88-1.728-31.325-1.645c-13.762,0.113-29.202,0.456-42.256,4.043
					c-2.78,0.765-14.061,4.703-12.782,8.401C61.932,64.308,86.522,68.835,116.27,68.597z"/>
			</g>
			<g>
				<g>
					<path style="fill:#FFAB3E;" d="M118.977,112.52c4.613,1.701,8.293-4.749,9.195-8.22c0.489-1.968,0.679-4.577,1.731-6.38
						c1.574-2.843,4.687-4.252,7.33-5.738c1.185-0.692,7.152-5.546,8.403-4.289c1.636,1.616-4.948,7.422-5.852,8.197
						c0.804-0.957,7.145-5.731,6.79-2.559c-0.451,3.084-4.989,6.215-7.16,7.963c0.804-0.957,5.429-4.277,6.153-2.165
						c0.627,2.022-3.943,4.226-5.215,5.107c-0.905,0.681-1.99,1.556-2.42,2.593c-0.336,1.034-0.105,2.327-0.44,3.362
						c-0.747,2.628-3.672,4.031-5.769,5.219c1.642-0.894,4.005-2.463,5.98-1.788c0.939,0.246,1.246,1.073,2.098,1.508
						c0.855,0.527,1.965,0.396,2.887,0.179c2.026-0.536,4.489-1.921,6.646-1.346c3.189,0.819-0.553,2.808-1.553,3.493
						c1.458-0.888,5.734-0.849,7.079,0.406c2.012,1.697-3.281,4.575-4.601,4.063c1.375-0.605,8.244-0.844,8.77,0.905
						c0.535,2.026-6.876,2.747-8.263,2.981c-2.586,0.462-5.272,0.741-7.958,1.019c-1.854,0.158-3.896,0.229-5.77-0.171
						c-3.367-0.627-5.241-3.722-8.17-5.108c-3.023-1.383-6.27-1.178-8.603,1.228L118.977,112.52z"/>
				</g>
				<g>
					<path style="fill:#FFAB3E;" d="M117.695,113.123c0.141-1.306,0.585-4.575-0.382-5.657c-1.066-1.265-4.092-0.044-5.285,0.37
						c0.425-1.129,1.984-1.742,2.982-2.427c0.91-0.589,2.82-1.771,0.941-2.357c-2.068-0.672-5.542,1.029-6.982,2.38
						c0.516-1.226,1.408-2.279,2.212-3.237c0.715-0.861,1.965-2.299,0.012-2.325c-2.045-0.021-4.19,2.47-4.971,4.077
						c0.243-1.03,3.051-5.869,1.552-6.188c-1.777-0.311-4.234,3.865-5.028,5.1c-2.384,3.615-5.329,7.157-6.577,11.383
						c-0.918,3.006,0.142,6.78,2.354,8.935L117.695,113.123z"/>
				</g>
				<g>
					<path style="fill:#FFAB3E;" d="M120.521,130.314c1.522,0.97,5.163,1.494,5.699,3.521c0.42,1.38-1.626,4.054-2.521,5.014
						c0.799-1.051,1.978-1.928,2.97-2.799c0.995-0.778,3.454-2.258,2.892,0.272c-0.48,2.247-2.532,4.735-3.672,6.726
						c0.983-1.149,1.981-1.835,3.16-2.712c0.909-0.589,3.255-2.623,3.242-0.298c0.094,2.692-3.376,4.485-4.805,6.207
						c1.688,0.408,3.805-0.224,5.568-0.285c0.928-0.032,2.6-0.09,2.734,1.113c0.135,1.204-1.803,1.643-2.632,1.858
						c-3.787,0.688-7.984,0.276-11.698,0.405c-2.968,0.195-12.197-0.6-13.885-1.007c-2.714-0.556-3.787-2.006-3.971-4.602
						L120.521,130.314z"/>
				</g>
				<g>
					<path style="fill:#DC6A3C;" d="M87.399,148.192c-1.867-0.214-5.222-0.469-6.301-2.104c-1.274-1.908-0.99-4.428,0.063-6.23
						c2.883-5.305,11.55-20.756,13.141-23.136c1.232-1.995,2.811-4.745,5.304-5.204c2.03-0.441,23.406-0.532,24.748,3.326
						c0.727,2.205,0.158,4.549-0.329,6.611c-0.665,2.254-6.571,24.953-8.384,26.317c-1.722,1.269-3.957,1.16-6.008,0.953
						C108.795,148.66,87.399,148.192,87.399,148.192z"/>
				</g>
				<g>
					<g>
						<path style="fill:#BB461D;" d="M110.014,117.432c0.641-0.763,1.746-1.088,2.773-1.022c1.037,0.053,2.103,0.468,2.885,1.302
							c0.796,0.809,1.11,2.116,0.827,3.138c-0.243,1.038-0.84,1.885-1.611,2.478c0.254-0.937,0.46-1.813,0.449-2.617
							c-0.019-0.811-0.271-1.449-0.767-1.982c-0.483-0.527-1.192-0.918-1.97-1.168C111.813,117.33,110.964,117.226,110.014,117.432z
							"/>
					</g>
					<g>
						<path style="fill:#BB461D;" d="M102.652,120.267c0.502-0.578,1.242-0.959,2.044-1.106c0.792-0.14,1.749-0.02,2.472,0.599
							c0.737,0.571,1.1,1.602,1.051,2.469c-0.007,0.879-0.273,1.643-0.462,2.35l-1.254-0.717c0.827-0.871,1.955-1.012,2.909-0.93
							c0.959,0.121,1.958,0.533,2.588,1.383c0.322,0.405,0.517,0.98,0.516,1.474c-0.002,0.503-0.118,0.956-0.271,1.375
							c-0.334,0.829-0.811,1.55-1.402,2.162c0.291-0.793,0.56-1.579,0.66-2.356c0.112-0.781,0.017-1.495-0.432-1.879
							c-0.433-0.449-1.11-0.684-1.788-0.721c-0.677-0.06-1.35,0.156-1.696,0.506l-2.207,2.227l0.953-2.944
							c0.232-0.716,0.429-1.384,0.505-1.997c0.071-0.614-0.069-1.135-0.442-1.577c-0.365-0.423-0.979-0.689-1.659-0.725
							C104.06,119.809,103.335,119.939,102.652,120.267z"/>
					</g>
					<g>
						<path style="fill:#BB461D;" d="M95.829,124.546c0.709-0.508,1.591-0.77,2.487-0.838c0.888-0.056,1.884,0.084,2.681,0.752
							c0.387,0.331,0.698,0.782,0.84,1.301c0.142,0.518,0.111,1.039,0.034,1.508c-0.158,0.942-0.514,1.766-0.695,2.511l-1.067-0.678
							c0.805-0.666,1.686-1.084,2.69-1.29c0.501-0.095,1.037-0.135,1.607-0.02c0.563,0.107,1.17,0.44,1.55,0.951
							c0.748,1.031,0.65,2.315,0.245,3.258c-0.392,0.953-0.983,1.683-1.444,2.375l-0.934-0.949c0.925-0.5,1.99-0.806,3.105-0.581
							c0.55,0.115,1.096,0.393,1.494,0.813c0.399,0.419,0.636,0.936,0.738,1.466c0.204,1.077-0.136,2.083-0.597,2.914
							c-0.476,0.837-1.099,1.557-1.805,2.162c0.546-0.75,0.996-1.558,1.31-2.39c0.299-0.831,0.432-1.722,0.193-2.46
							c-0.249-0.753-0.82-1.259-1.539-1.326c-0.719-0.075-1.538,0.161-2.198,0.579l-2.373,1.503l1.439-2.452
							c0.474-0.808,0.981-1.496,1.253-2.195c0.134-0.346,0.205-0.681,0.186-0.992c-0.016-0.302-0.132-0.643-0.267-0.829
							c-0.27-0.413-0.951-0.546-1.701-0.405c-0.729,0.136-1.525,0.441-2.102,0.886l-1.644,1.268l0.577-1.946
							c0.271-0.914,0.666-1.658,0.859-2.404c0.204-0.741,0.13-1.409-0.356-1.942c-0.476-0.515-1.275-0.807-2.087-0.876
							C97.495,124.15,96.63,124.22,95.829,124.546z"/>
					</g>
					<g>
						<path style="fill:#BB461D;" d="M91.081,130.358c1.709-0.361,3.568,0.162,5.085,1.088c1.542,0.926,2.801,2.266,3.752,3.793
							c0.952,1.537,1.473,3.352,1.526,5.139c0.048,1.786-0.384,3.616-1.376,5.06l-0.005,0.009c-0.142,0.15-0.248,0.367-0.426,0.509
							c0.118-0.189,0.138-0.409,0.232-0.628l-0.005,0.009c0.502-1.617,0.572-3.268,0.347-4.859c-0.229-1.594-0.74-3.111-1.571-4.47
							c-0.819-1.366-1.878-2.608-3.128-3.622C94.254,131.387,92.792,130.614,91.081,130.358z"/>
					</g>
				</g>
				<g>
					<path style="fill:#BB461D;" d="M91.353,148.265c0.722-0.501,1.176-1.089,1.609-1.714c0.417-0.634,0.787-1.306,1.158-1.997
						c0.384-0.702,0.728-1.37,1.08-2.084c0.312-0.723,0.714-1.387,0.755-2.241c0.313,0.331,0.408,0.825,0.451,1.267
						c0.026,0.451-0.007,0.897-0.089,1.327c-0.144,0.856-0.469,1.7-0.875,2.441c-0.411,0.754-0.923,1.488-1.616,2.072
						C93.157,147.918,92.246,148.379,91.353,148.265z"/>
				</g>
				<path d="M86.573,141.11c-0.047-1.346,1.007-2.475,2.353-2.521c1.345-0.046,2.476,1.007,2.521,2.353
					c0.047,1.347-1.008,2.475-2.353,2.521C87.749,143.509,86.62,142.457,86.573,141.11z"/>
			</g>
		</g>
	</g>
	<g>
		<path style="opacity:0.5;fill:#D8EFFF;" d="M444.659,184.827c0,2.926-30.496,5.298-68.114,5.298
			c-37.618,0-68.114-2.372-68.114-5.298c0-2.926,30.496-5.298,68.114-5.298C414.163,179.529,444.659,181.901,444.659,184.827z"/>
		<g>
			<path style="fill:#FFB069;" d="M401.289,127.994c7.312,10.49,33.378,37.51,37.51,41.642c3.497,3.496,10.809,7.311,11.762,11.444
				c-4.45,0.954-10.808-3.497-13.669-6.993c2.861,3.179,5.722,6.675,6.993,10.808c-3.496,3.496-12.079-7.311-13.668-9.854
				c1.272,1.589,8.265,10.172,6.993,12.079c-1.907,2.543-8.9-4.768-10.172-6.357c-5.723-6.357-36.557-51.497-40.371-57.536
				L401.289,127.994z"/>
			<g>
				<g>
					<path style="fill:#D39E6E;" d="M446.937,141.531c1.652-0.102,3.28-0.082,4.671,0.331c1.886,0.558,3.341,1.825,3.851,4.449
						c0.545,2.803,0.393,5.502-3.15,6.319c-1.524,0.359-3.141,0.581-4.793,0.727C444.491,150.752,443.883,144.738,446.937,141.531z"
						/>
				</g>
				<g>
					<path style="fill:#B57B41;" d="M303.064,142.457c3.497-1.112,6.835-0.318,10.49,0.477
						c18.438,3.814,122.065-0.795,127.787-0.954c1.682-0.047,3.657-0.333,5.596-0.45c-3.054,3.207-2.446,9.221,0.578,11.825
						c-4.203,0.369-8.652,0.182-12.531,0.068c-17.324-0.636-120.953-0.159-126.039,0.159c-3.179,0.318-7.47,0.954-9.377-2.384
						C297.183,147.384,298.773,143.729,303.064,142.457z"/>
				</g>
			</g>
			<g>
				<g>
					<g>
						<path style="fill:#72583B;" d="M377.924,127.994c0.116,1.67-0.16,3.375-0.742,4.972c-0.604,1.593-1.52,3.05-2.534,4.399
							c-2.038,2.702-4.511,4.981-6.356,7.682c-1.865,2.675-2.997,5.813-3.311,9.079c-0.176,1.632-0.155,3.292-0.07,4.951
							c0.054,1.664,0.215,3.327,0.299,4.997c-0.59-3.283-1.168-6.603-0.996-10.007c0.138-3.401,1.315-6.775,3.256-9.587
							c1.958-2.809,4.46-5.07,6.579-7.59C376.188,134.405,377.774,131.37,377.924,127.994z"/>
					</g>
					<g>
						<path style="fill:#72583B;" d="M376.971,151.835c-0.597-0.348-1.044-0.915-1.432-1.475c-0.394-0.563-0.778-1.104-1.288-1.51
							c-1-0.806-2.3-1.271-3.576-1.552l-0.004-0.001l-0.033-0.01c-1.683-0.528-3.564-0.444-5.213,0.145
							c-1.61,0.611-3.057,1.849-4.107,3.27c-1.058,1.445-1.746,3.165-2.112,4.962c-0.351,1.804-0.443,3.673-0.354,5.549
							c-0.371-1.838-0.513-3.752-0.261-5.649c0.232-1.893,0.841-3.791,1.962-5.405c0.553-0.808,1.231-1.53,1.985-2.154
							c0.185-0.157,0.394-0.311,0.587-0.454c0.189-0.129,0.383-0.275,0.607-0.404c0.434-0.258,0.889-0.477,1.36-0.637
							c1.875-0.653,3.951-0.677,5.814,0.022l-0.037-0.011c1.346,0.406,2.662,0.967,3.73,1.958c0.517,0.503,0.853,1.144,1.175,1.735
							C376.102,150.805,376.444,151.39,376.971,151.835z"/>
					</g>
				</g>
				<g>
					<g>
						<path style="fill:#72583B;" d="M366.481,125.451c0.116,1.67-0.16,3.375-0.742,4.972c-0.605,1.593-1.52,3.05-2.534,4.398
							c-2.038,2.703-4.512,4.982-6.356,7.682c-1.865,2.675-2.997,5.813-3.311,9.078c-0.175,1.633-0.154,3.292-0.069,4.951
							c0.053,1.664,0.215,3.327,0.299,4.997c-0.59-3.283-1.169-6.602-0.996-10.007c0.137-3.401,1.314-6.775,3.256-9.587
							c1.958-2.81,4.459-5.071,6.579-7.59C364.744,131.862,366.331,128.827,366.481,125.451z"/>
					</g>
					<g>
						<path style="fill:#72583B;" d="M365.528,149.292c-0.598-0.348-1.044-0.915-1.432-1.475c-0.395-0.563-0.779-1.104-1.289-1.511
							c-0.999-0.807-2.3-1.271-3.575-1.552l-0.005-0.001l-0.033-0.01c-1.683-0.528-3.564-0.444-5.213,0.145
							c-1.609,0.612-3.057,1.85-4.107,3.27c-1.058,1.445-1.746,3.165-2.112,4.962c-0.35,1.804-0.443,3.673-0.353,5.549
							c-0.371-1.838-0.513-3.753-0.261-5.649c0.231-1.892,0.841-3.791,1.962-5.404c0.552-0.808,1.23-1.53,1.984-2.154
							c0.184-0.157,0.395-0.311,0.587-0.455c0.189-0.129,0.383-0.275,0.607-0.405c0.435-0.258,0.889-0.476,1.36-0.637
							c1.875-0.653,3.951-0.677,5.814,0.022l-0.037-0.011c1.346,0.405,2.662,0.967,3.73,1.959c0.517,0.503,0.853,1.143,1.176,1.734
							C364.659,148.262,365,148.848,365.528,149.292z"/>
					</g>
				</g>
				<g>
					<g>
						<g>
							<path style="fill:#72583B;" d="M326.269,64.577c-2.86,1.113-5.403-1.589-7.47-3.338c-2.066-1.748-5.404-3.497-6.676-5.88
								c-2.384-4.768,9.695-4.132,12.238-3.815L326.269,64.577z"/>
						</g>
						<g>
							<path style="fill:#4C3C2C;" d="M320.866,55.835c-0.732,0.401-1.565,0.574-2.385,0.65c-0.825,0.08-1.656,0.036-2.478-0.09
								c-0.816-0.146-1.631-0.37-2.383-0.759c-0.741-0.377-1.474-0.936-1.814-1.708c0.662,0.495,1.375,0.759,2.107,0.985
								c0.736,0.211,1.488,0.376,2.253,0.496c0.762,0.136,1.534,0.218,2.313,0.298C319.261,55.777,320.041,55.832,320.866,55.835z"
								/>
						</g>
					</g>
					<g>
						<g>
							<path style="fill:#FFDA66;" d="M409.341,132.549c-1.482,1.908-51.496-1.695-58.277-2.331
								c-7.417-0.636-12.928-5.298-16.529-11.867c-3.18-5.934-6.358-9.536-9.324-15.683c-2.12-4.45-3.814-8.688-5.299-13.351
								c-1.271-3.39,0.213-7.417,1.484-10.808c1.059-2.544,5.086-8.265,5.086-8.265c-2.332-3.814-2.968-10.172-3.392-14.623
								c-0.636-5.297,0.849-9.959,6.57-11.231c8.9-1.484,19.496-1.272,25.006,6.781c2.755,3.814,4.45,7.418,4.875,12.292
								c0.423,4.873,2.966,7.205,6.357,11.02c6.357,6.993,9.96,15.946,16.953,22.516L409.341,132.549z"/>
						</g>
						<g>
							<g>
								<path style="fill:#C98439;" d="M332.309,82.855c0.273,0.316,0.478,0.662,0.669,1.022c0.194,0.355,0.342,0.727,0.486,1.099
									c0.267,0.753,0.485,1.507,0.593,2.329c-0.273-0.315-0.48-0.666-0.67-1.022c-0.194-0.355-0.342-0.727-0.485-1.099
									C332.635,84.427,332.419,83.681,332.309,82.855z"/>
							</g>
							<g>
								<path style="fill:#C98439;" d="M327.382,83.014c0.246,0.514,0.454,1.02,0.674,1.526l0.641,1.519
									c0.2,0.512,0.412,1.021,0.589,1.547c0.182,0.524,0.361,1.051,0.48,1.607c-0.346-0.451-0.631-0.931-0.902-1.418
									c-0.276-0.486-0.506-0.995-0.723-1.51c-0.203-0.521-0.395-1.049-0.521-1.598C327.489,84.14,327.386,83.581,327.382,83.014z"
									/>
							</g>
							<g>
								<path style="fill:#C98439;" d="M323.09,86.192c0.311,0.348,0.561,0.728,0.8,1.116c0.243,0.385,0.441,0.792,0.636,1.202
									c0.18,0.415,0.355,0.832,0.484,1.27c0.133,0.435,0.253,0.875,0.306,1.34c-0.284-0.372-0.51-0.764-0.73-1.158
									c-0.227-0.391-0.415-0.798-0.606-1.205C323.62,87.934,323.285,87.104,323.09,86.192z"/>
							</g>
							<g>
								<path style="fill:#C98439;" d="M325.633,96.523c0.523,0.603,0.89,1.256,1.26,1.909c0.351,0.664,0.698,1.316,0.966,2.065
									c-0.326-0.232-0.594-0.516-0.844-0.814c-0.252-0.297-0.455-0.628-0.648-0.963c-0.177-0.344-0.345-0.691-0.463-1.06
									C325.782,97.291,325.675,96.921,325.633,96.523z"/>
							</g>
							<g>
								<path style="fill:#C98439;" d="M330.402,95.411c0.612,0.702,1.089,1.454,1.534,2.24c0.212,0.397,0.421,0.798,0.588,1.221
									c0.171,0.421,0.329,0.85,0.421,1.308c-0.612-0.699-1.091-1.454-1.534-2.24c-0.211-0.398-0.42-0.798-0.587-1.221
									C330.651,96.295,330.495,95.869,330.402,95.411z"/>
							</g>
							<g>
								<path style="fill:#C98439;" d="M333.74,94.14c0.306,0.257,0.552,0.551,0.788,0.857c0.24,0.301,0.438,0.628,0.631,0.958
									c0.181,0.336,0.357,0.676,0.487,1.038c0.136,0.359,0.259,0.725,0.318,1.12c-0.282-0.283-0.507-0.593-0.726-0.904
									c-0.226-0.308-0.413-0.635-0.604-0.962C334.277,95.581,333.945,94.909,333.74,94.14z"/>
							</g>
							<g>
								<path style="fill:#C98439;" d="M338.031,91.755c0.445,0.445,0.756,0.909,1.032,1.435c0.126,0.266,0.245,0.538,0.315,0.833
									l0.086,0.446c0,0.158,0.018,0.308-0.003,0.465c-0.386-0.491-0.666-0.961-0.935-1.476c-0.124-0.261-0.249-0.523-0.331-0.811
									C338.105,92.359,338.035,92.072,338.031,91.755z"/>
							</g>
							<g>
								<path style="fill:#C98439;" d="M338.19,101.928c0.258,0.164,0.461,0.365,0.655,0.573c0.2,0.205,0.359,0.438,0.516,0.672
									c0.145,0.243,0.284,0.49,0.379,0.763c0.099,0.27,0.183,0.547,0.198,0.853c-0.46-0.393-0.781-0.832-1.085-1.297
									c-0.141-0.238-0.285-0.476-0.392-0.738C338.348,102.494,338.243,102.229,338.19,101.928z"/>
							</g>
							<g>
								<path style="fill:#C98439;" d="M334.057,103.04c0.316,0.44,0.571,0.906,0.817,1.376c0.254,0.465,0.468,0.944,0.688,1.421
									c0.421,0.962,0.831,1.91,1.197,2.926c-0.193-0.19-0.356-0.402-0.536-0.606l-0.454-0.663
									c-0.291-0.451-0.528-0.929-0.754-1.411c-0.209-0.49-0.411-0.98-0.565-1.49C334.293,104.086,334.145,103.575,334.057,103.04z
									"/>
							</g>
							<g>
								<path style="fill:#C98439;" d="M329.607,103.994c0.213,0.081,0.37,0.203,0.52,0.344c0.152,0.133,0.263,0.292,0.37,0.451
									c0.096,0.165,0.19,0.329,0.246,0.516c0.064,0.183,0.123,0.368,0.136,0.597c-0.214-0.08-0.373-0.207-0.521-0.343
									c-0.152-0.133-0.263-0.292-0.369-0.452C329.793,104.771,329.651,104.442,329.607,103.994z"/>
							</g>
							<g>
								<path style="fill:#C98439;" d="M335.647,111.146c0.23,0.146,0.402,0.328,0.564,0.52c0.166,0.187,0.291,0.398,0.414,0.608
									c0.11,0.217,0.22,0.433,0.289,0.67c0.076,0.235,0.146,0.472,0.163,0.745c-0.232-0.145-0.404-0.33-0.566-0.52
									c-0.167-0.188-0.291-0.397-0.413-0.608c-0.11-0.217-0.22-0.433-0.289-0.671
									C335.736,111.658,335.665,111.419,335.647,111.146z"/>
							</g>
							<g>
								<path style="fill:#C98439;" d="M340.574,109.874c0.322,0.191,0.587,0.43,0.843,0.694c0.255,0.257,0.466,0.549,0.668,0.843
									c0.188,0.303,0.372,0.608,0.513,0.938c0.145,0.326,0.28,0.656,0.361,1.022c-0.292-0.234-0.527-0.504-0.754-0.779
									c-0.231-0.271-0.426-0.563-0.622-0.853C341.208,111.144,340.859,110.566,340.574,109.874z"/>
							</g>
							<g>
								<path style="fill:#C98439;" d="M346.295,108.603c0.305,0.216,0.554,0.473,0.793,0.741c0.243,0.262,0.447,0.552,0.649,0.841
									c0.19,0.297,0.38,0.594,0.531,0.916c0.157,0.318,0.31,0.639,0.412,0.999c-0.306-0.215-0.556-0.474-0.794-0.74
									c-0.243-0.263-0.446-0.552-0.647-0.842c-0.189-0.297-0.379-0.594-0.53-0.916
									C346.552,109.285,346.399,108.962,346.295,108.603z"/>
							</g>
							<g>
								<path style="fill:#C98439;" d="M340.256,115.755c0.46,0.393,0.79,0.782,1.126,1.22c0.157,0.222,0.317,0.443,0.444,0.692
									c0.133,0.245,0.262,0.497,0.337,0.79c-0.271-0.137-0.488-0.316-0.698-0.503c-0.216-0.184-0.392-0.401-0.565-0.623
									c-0.16-0.23-0.315-0.468-0.424-0.734C340.36,116.325,340.273,116.058,340.256,115.755z"/>
							</g>
							<g>
								<path style="fill:#C98439;" d="M347.09,116.232c0.272,0.146,0.492,0.336,0.701,0.538c0.215,0.196,0.389,0.42,0.563,0.643
									c0.162,0.231,0.325,0.46,0.453,0.716c0.134,0.253,0.265,0.507,0.349,0.806c-0.276-0.14-0.501-0.327-0.714-0.523
									c-0.217-0.193-0.396-0.417-0.57-0.642c-0.163-0.233-0.324-0.466-0.449-0.725
									C347.295,116.791,347.169,116.531,347.09,116.232z"/>
							</g>
							<g>
								<path style="fill:#C98439;" d="M346.295,120.841c0.586,0.418,1.044,0.874,1.509,1.363c0.223,0.249,0.447,0.498,0.644,0.776
									c0.201,0.274,0.398,0.554,0.55,0.881c-0.327-0.151-0.606-0.35-0.88-0.559c-0.276-0.205-0.518-0.447-0.755-0.693
									c-0.226-0.258-0.446-0.521-0.624-0.819C346.554,121.49,346.394,121.188,346.295,120.841z"/>
							</g>
						</g>
					</g>
					<path style="fill:#272525;" d="M332.945,53.928c0-1.844-1.494-3.338-3.338-3.338c-1.844,0-3.338,1.494-3.338,3.338
						c0,1.844,1.494,3.338,3.338,3.338C331.451,57.266,332.945,55.772,332.945,53.928z"/>
				</g>
				<g>
					<g>
						<path style="fill:#FFE59C;" d="M407.964,123.861c1.431,1.589,8.265,8.582,3.179,9.06c-3.496,0.318-6.517-2.066-9.536-3.338
							c-6.993-3.02-14.146-6.039-20.821-9.695c-3.974-2.066-7.629-3.974-11.126-6.675c-3.814-3.02-6.993-6.834-10.331-10.49
							c-5.403-6.04-10.967-15.099-7.788-23.523c1.431-3.814,5.881-6.834,9.854-6.675c4.133,0.159,6.834,3.655,9.695,6.357
							L407.964,123.861z"/>
					</g>
					<g>
						<defs>
							<path id="SVGID_1_" d="M407.964,123.861c1.431,1.589,8.265,8.582,3.179,9.06c-3.496,0.318-6.517-2.066-9.536-3.338
								c-6.993-3.02-14.146-6.039-20.821-9.695c-3.974-2.066-7.629-3.974-11.126-6.675c-3.814-3.02-6.993-6.834-10.331-10.49
								c-5.403-6.04-10.967-15.099-7.788-23.523c1.431-3.814,5.881-6.834,9.854-6.675c4.133,0.159,6.834,3.655,9.695,6.357
								L407.964,123.861z"/>
						</defs>
						<clipPath id="SVGID_00000010273421222561340730000003591529569606502580_">
							<use xlink:href="#SVGID_1_"  style="overflow:visible;"/>
						</clipPath>
						<g style="clip-path:url(#SVGID_00000010273421222561340730000003591529569606502580_);">
							<g>
								<path style="fill:#FFE59C;" d="M404.945,124.974c-7.152-7.629-13.987-15.735-20.98-23.682"/>
								<path style="fill:#E89746;" d="M404.945,124.974c-1.894-1.839-3.716-3.75-5.513-5.681c-1.798-1.931-3.54-3.913-5.295-5.881
									c-1.72-2.001-3.45-3.99-5.143-6.011c-1.693-2.021-3.381-4.048-5.029-6.109c1.836,1.897,3.611,3.848,5.378,5.806l5.246,5.919
									L404.945,124.974z"/>
							</g>
							<g>
								<path style="fill:#FFE59C;" d="M402.083,126.563c-4.291-3.02-7.629-7.152-11.443-10.649
									c-4.928-4.132-9.378-8.742-14.464-12.874"/>
								<path style="fill:#E89746;" d="M402.083,126.563c-2.452-1.596-4.63-3.586-6.709-5.634c-2.096-2.036-4.071-4.18-6.342-5.997
									c-2.193-1.938-4.325-3.934-6.438-5.946c-2.117-2.006-4.226-4.018-6.419-5.946c2.334,1.756,4.559,3.659,6.732,5.607
									c2.179,1.943,4.305,3.941,6.516,5.832c2.26,1.874,4.259,4.03,6.277,6.128C397.72,122.705,399.761,124.788,402.083,126.563z"
									/>
							</g>
							<g>
								<path style="fill:#FFE59C;" d="M398.269,126.087c-5.404-2.702-10.49-6.358-15.258-10.013
									c-4.609-3.338-9.378-6.358-13.669-10.013"/>
								<path style="fill:#E89746;" d="M398.269,126.087c-2.676-1.216-5.243-2.672-7.714-4.271
									c-2.477-1.592-4.846-3.339-7.198-5.101c-2.324-1.766-4.772-3.399-7.141-5.135c-2.379-1.725-4.71-3.531-6.874-5.52
									c2.308,1.819,4.72,3.486,7.14,5.142c2.422,1.656,4.858,3.287,7.238,5.036c2.316,1.798,4.681,3.529,7.09,5.195
									C393.224,123.09,395.693,124.674,398.269,126.087z"/>
							</g>
							<g>
								<path style="fill:#FFE59C;" d="M381.898,89.53c2.702,1.907,4.928,5.722,6.357,8.583c0.795,1.431,2.861,5.245,2.066,6.994
									c-2.066,3.974-13.669-6.04-15.734-7.629c1.748,1.59,13.827,12.715,10.013,15.1c-2.225,1.271-7.312-3.179-8.9-4.291
									c-2.861-2.066-5.881-4.45-8.106-7.152c2.385,3.179,5.564,5.563,7.788,8.742c1.431,1.907,3.338,5.881-0.953,4.768
									c-4.609-1.112-9.536-4.927-13.351-7.788"/>
								<path style="fill:#E89746;" d="M381.898,89.53c1.265,0.883,2.31,2.045,3.24,3.271c0.929,1.231,1.741,2.546,2.489,3.894
									c0.713,1.368,1.51,2.68,2.133,4.106c0.311,0.709,0.584,1.44,0.76,2.206c0.15,0.748,0.299,1.616-0.155,2.368
									c-0.485,0.778-1.472,0.926-2.234,0.81c-0.797-0.101-1.54-0.371-2.256-0.677c-1.431-0.625-2.76-1.429-4.054-2.272
									c-2.587-1.691-5.004-3.633-7.394-5.55l0.337-0.402c2.494,2.278,4.901,4.653,7.103,7.23c1.089,1.297,2.144,2.636,2.97,4.152
									c0.396,0.762,0.778,1.572,0.799,2.523c0.013,0.469-0.159,0.998-0.521,1.359c-0.091,0.086-0.185,0.169-0.287,0.236
									c-0.164,0.113-0.208,0.109-0.321,0.168c-0.26,0.091-0.497,0.142-0.732,0.144c-0.951,0.02-1.777-0.334-2.553-0.701
									c-0.775-0.381-1.501-0.833-2.206-1.309c-1.415-0.949-2.705-2.039-4.073-3.007c-2.712-2.006-5.37-4.152-7.549-6.781
									l0.407-0.32c1.723,2.3,3.9,4.236,5.85,6.409c0.974,1.098,1.879,2.23,2.637,3.508c0.363,0.641,0.688,1.312,0.867,2.048
									c0.077,0.368,0.139,0.762,0.025,1.165c-0.094,0.416-0.484,0.741-0.875,0.826c-0.787,0.178-1.528-0.043-2.226-0.221
									c-0.711-0.19-1.398-0.443-2.071-0.728c-1.346-0.571-2.624-1.276-3.859-2.043c-2.472-1.537-4.769-3.32-7.069-5.086
									c2.337,1.718,4.672,3.452,7.164,4.931c1.245,0.738,2.53,1.411,3.868,1.946c0.67,0.267,1.353,0.501,2.045,0.68
									c0.692,0.174,1.415,0.356,2.061,0.196c0.691-0.135,0.771-0.926,0.585-1.583c-0.171-0.674-0.491-1.322-0.85-1.936
									c-0.736-1.212-1.664-2.351-2.628-3.409c-1.946-2.125-4.169-4.036-5.938-6.393l0.407-0.32
									c2.139,2.563,4.775,4.679,7.478,6.66c1.385,0.974,2.679,2.057,4.067,2.979c0.691,0.464,1.401,0.902,2.14,1.26
									c0.731,0.35,1.522,0.658,2.271,0.632c0.188,0.001,0.363-0.05,0.503-0.09c0.072-0.037,0.236-0.103,0.238-0.122
									c0.075-0.047,0.138-0.105,0.2-0.163c0.235-0.24,0.357-0.569,0.352-0.94c-0.006-0.747-0.343-1.526-0.72-2.246
									c-0.782-1.449-1.816-2.779-2.887-4.063c-2.165-2.556-4.554-4.933-7.024-7.206l0.337-0.402
									c2.406,1.937,4.782,3.871,7.325,5.586c1.272,0.851,2.577,1.66,3.963,2.285c0.691,0.306,1.409,0.572,2.142,0.672
									c0.718,0.117,1.514-0.028,1.889-0.616c0.385-0.591,0.284-1.4,0.142-2.121c-0.158-0.738-0.424-1.456-0.713-2.162
									c-0.58-1.41-1.355-2.753-2.036-4.128c-0.717-1.357-1.498-2.684-2.397-3.929C384.16,91.619,383.144,90.44,381.898,89.53z"/>
							</g>
							<g>
								<path style="fill:#FFE59C;" d="M374.268,88.902c0.63,0.719,1.439,1.258,2.068,1.978c1.397,1.489,4.679,4.971,4.033,7.275
									c-0.64,2.277-4.552,1.362-5.946,0.76c-2.572-1.111-6.808-4.799-6.808-4.799s4.854,3.686,5.574,6.743
									c0.539,2.337-1.619,2.966-3.596,3.236c-4.675,0.539-8.272-3.326-11.148-6.473"/>
								<path style="fill:#E89746;" d="M374.268,88.902c1.65,1.456,3.269,2.982,4.625,4.745c0.666,0.887,1.287,1.838,1.611,2.943
									c0.155,0.548,0.215,1.163,0.022,1.744c-0.181,0.593-0.69,1.063-1.251,1.269c-1.135,0.406-2.309,0.268-3.404,0.036
									c-1.109-0.223-2.178-0.72-3.113-1.313c-1.898-1.183-3.638-2.554-5.337-3.986c-0.126-0.104-0.143-0.291-0.039-0.418
									c0.103-0.124,0.288-0.141,0.414-0.042c1.839,1.47,3.57,3.086,4.864,5.105c0.307,0.513,0.588,1.054,0.748,1.654
									c0.16,0.576,0.213,1.285-0.085,1.889c-0.293,0.612-0.859,1.005-1.416,1.246c-0.566,0.247-1.155,0.373-1.738,0.471
									c-1.168,0.206-2.409,0.139-3.548-0.19c-1.146-0.328-2.204-0.889-3.168-1.559c-1.919-1.37-3.476-3.128-5.007-4.874
									c1.604,1.678,3.238,3.365,5.176,4.624c0.959,0.633,1.998,1.15,3.1,1.436c1.107,0.286,2.246,0.322,3.366,0.099
									c1.083-0.213,2.309-0.553,2.764-1.477c0.42-0.938-0.088-2.099-0.66-3.029c-1.23-1.905-2.975-3.494-4.755-4.921l0.375-0.46
									c1.661,1.424,3.389,2.807,5.23,3.974c0.926,0.592,1.882,1.047,2.943,1.271c1.038,0.226,2.159,0.374,3.13,0.044
									c0.477-0.167,0.861-0.511,1.022-0.98c0.171-0.469,0.141-1.006,0.009-1.516c-0.271-1.03-0.859-1.977-1.481-2.87
									C377.399,92.017,375.858,90.431,374.268,88.902z"/>
							</g>
						</g>
					</g>
				</g>
			</g>
		</g>
	</g>
	<g>
		<ellipse style="opacity:0.5;fill:#D8EFFF;" cx="346.863" cy="445.827" rx="116.433" ry="12.158"/>
		<g>
			<g>
				<g>
					<g>
						<g>
							<path style="fill:#83A362;" d="M273.076,437.908c-1.145-3.437-3.436-1.337-5.345,0.573c-0.397,0.352-0.814,0.749-1.228,1.171
								c-0.979,2.067-2.425,4.009-3.163,4.747c0.44-1.615,1.785-3.34,3.163-4.747c1.05-2.213,1.563-4.568,0.083-5.753
								c-2.674-2.1-7.637,4.391-8.591,6.491c0.954-2.291,4.199-9.736-0.955-8.591c-2.113,0.422-4.108,2.073-5.858,3.917
								c-1.044,1.458-1.003,1.524,0.714,3.432c4.563,4.999,9.536,6.97,17.822,8.26c0.826-1.065,1.599-2.172,2.353-3.292
								c0.083-0.224,0.159-0.448,0.243-0.672C272.885,441.536,273.648,440.007,273.076,437.908z"/>
						</g>
						<g>
							<path style="fill:#9EC472;" d="M263.339,444.399c0.738-0.738,2.185-2.68,3.163-4.747
								C265.124,441.059,263.78,442.784,263.339,444.399z"/>
						</g>
						<g>
							<path style="fill:#9EC472;" d="M264.067,418.501c-3.261,3.694-6.087,8.041-8.911,11.953
								c-1.305,1.522-2.392,3.044-3.477,4.565c-0.186,0.266-0.352,0.493-0.497,0.696c1.75-1.844,3.745-3.495,5.858-3.917
								c5.154-1.145,1.909,6.3,0.955,8.591c0.954-2.101,5.917-8.591,8.591-6.491c1.48,1.185,0.967,3.54-0.083,5.753
								c0.415-0.422,0.831-0.819,1.228-1.171c1.908-1.91,4.199-4.01,5.345-0.573c0.572,2.1-0.19,3.628-0.763,5.536
								c-0.084,0.224-0.16,0.448-0.243,0.672c4.011-5.949,7.236-12.451,11.993-17.573L264.067,418.501z"/>
						</g>
					</g>
					<g>
						<path style="fill:#DBC283;" d="M299.313,436.06c7.389,2.173,15.614,2.654,23.221,3.307c6.086,0.434,12.172,0.651,18.04,0.434
							c10.433-0.217,21.083-2.173,30.646-5.649c9.998-3.479,19.562-8.478,25.43-17.606c6.738-9.998,13.693-28.038,3.479-38.254
							c-11.52-11.52-29.125-5.868-43.035-5.868L299.313,436.06z"/>
					</g>
					<g>
						<g>
							<path style="fill:#9EC472;" d="M370.249,450.317c0.381-2.291,1.335-8.4,4.581-8.592c2.864-0.381,3.627,6.301,4.01,8.401
								c-0.191-2.101-1.146-9.164,2.48-9.546c1.521-0.117,3.041,3.424,4.034,6.665c-0.169-1.076-0.352-2.081-0.352-2.668
								c-0.247-6.085,0.494-12.388,0.246-18.691c-0.246-5.651,0.495-11.953-5.189-15.65c-4.201-2.607-15.077-4.129-18.042,0.436
								l-0.989,4.13c2.471,11.736,1.483,23.907-0.248,35.646c0.011,0.006,0.022,0.01,0.033,0.017
								c0.986-2.811,2.33-5.768,4.089-7.402C369.104,439.053,370.249,447.453,370.249,450.317z"/>
						</g>
						<g>
							<path style="fill:#83A362;" d="M385.355,447.246c-0.993-3.241-2.513-6.782-4.034-6.665c-3.626,0.382-2.672,7.445-2.48,9.546
								c-0.383-2.101-1.146-8.782-4.01-8.401c-3.246,0.191-4.2,6.301-4.581,8.592c0-2.864-1.145-11.264-5.347-7.255
								c-1.759,1.635-3.103,4.591-4.089,7.402c4.199,2.588,10.114,2.591,15.291,2.591c2.225,0,7.661,0.435,9.145-1.522
								C385.858,450.866,385.624,448.965,385.355,447.246z"/>
						</g>
					</g>
				</g>
				<g>
					<path style="fill:#83A362;" d="M263.415,402.851c-5.435-3.043-10.867-2.826-15.215-8.478
						c-1.304-1.956-6.52-11.084-4.781-13.476c1.739-2.391,3.912,2.825,4.781,4.13c1.738,2.608,3.695,4.564,6.304,6.086
						c4.129,2.607,8.476,3.912,13.258,4.129c0.869,0,1.739-0.217,2.608-0.217L263.415,402.851z"/>
				</g>
				<g>
					<g>
						<path style="fill:#A9C687;" d="M454.34,401.541c-4.422-0.15-7.714,7.388-9.446,11.167c-0.582,1.455-2.927,7.556-1.903,10.297
							c0.874,0.32,1.788,0.421,2.78,0.061c2.608-0.869,4.564-4.13,5.869-6.521c1.955-3.261,5.433-10.215,3.477-14.128
							C454.972,402.126,454.7,401.835,454.34,401.541z"/>
					</g>
					<g>
						<g>
							<path style="fill:#83A362;" d="M443.558,412.899c-1.719-1.146-5.154-4.392-4.392-7.063c0.955-2.673,5.154-1.146,7.064-0.382
								c-3.435-2.101-6.491-6.3-0.191-6.683c1.14,0,2.253,0.122,3.353,0.308c-7.54-2.828-19.88-5.471-21.442-6.877l-8.912,16.519
								c7.173,3.694,13.693,7.607,20.432,12.171c0.858,0.573,1.719,1.222,2.613,1.701c-1.838-2.117-3.901-4.188-4.442-7.02
								C436.494,411.372,440.884,412.516,443.558,412.899z"/>
						</g>
						<g>
							<path style="fill:#697758;" d="M446.039,398.771c-6.3,0.383-3.244,4.582,0.191,6.683c-1.909-0.764-6.108-2.291-7.064,0.382
								c-0.763,2.672,2.673,5.918,4.392,7.063c-2.674-0.383-7.064-1.527-5.919,2.673c0.541,2.833,2.604,4.903,4.442,7.02
								c0.299,0.158,0.602,0.299,0.909,0.412c-1.023-2.741,1.321-8.842,1.903-10.297c1.732-3.779,5.024-11.317,9.446-11.167
								c-1.004-0.819-2.778-1.648-4.949-2.462C448.291,398.893,447.178,398.771,446.039,398.771z"/>
						</g>
					</g>
				</g>
			</g>
			<g>
				<g>
					<path style="fill:#594B3D;" d="M412.082,384.594c1.739-4.13,4.565-7.173,0.652-10.867c-3.043-2.826-5.868-1.738-9.346-0.436
						c-3.912,1.739-8.911,3.696-11.085,7.607c-2.608,4.347,0,8.477,3.26,11.52L412.082,384.594z"/>
				</g>
				<g>
					<g>
						<path style="fill:#9EC472;" d="M383.174,409.155c-0.869-2.392,2.608-4.564,3.478-6.521c2.607-4.347,2.391-9.563,4.13-14.345
							c1.087-2.825,3.26-2.391,5.868-3.043c2.608-0.869,4.13-2.825,5.869-5.216c3.694-4.782,7.389-4.94,13.259-5.375
							c4.347-0.218,10.648-1.145,14.561,0.812c5.434,2.391,3.971,8.259,2.667,12.822c-3.043,9.346-5.492,23.75-17.447,24.838
							c-5.651,0.434-11.084,0-16.518-0.652C399.041,412.474,384.479,411.981,383.174,409.155z"/>
					</g>
					<g>
						<g>
							<path style="fill:#83A362;" d="M399.041,386.986c-1.413,0.84-2.534,2.025-3.193,3.425c-0.657,1.404-0.913,2.973-0.957,4.549
								c-0.103,3.172,0.544,6.371,0.891,9.631c-1.111-3.07-1.965-6.295-1.889-9.664c0.064-1.667,0.388-3.397,1.27-4.882
								C396.018,388.544,397.475,387.461,399.041,386.986z"/>
						</g>
						<g>
							<path style="fill:#83A362;" d="M398.824,395.027c-0.611-2.585-0.484-5.326,0.134-7.921c0.643-2.588,1.796-5.089,3.561-7.076
								c-1.091,2.409-1.991,4.811-2.591,7.313C399.307,389.838,399,392.388,398.824,395.027z"/>
						</g>
						<g>
							<path style="fill:#83A362;" d="M418.167,400.243c0.634,0.711,1.41,1.146,2.224,1.48c0.818,0.321,1.677,0.544,2.551,0.665
								c0.872,0.134,1.759,0.162,2.639,0.096c0.879-0.082,1.751-0.261,2.585-0.72c-0.564,0.787-1.513,1.258-2.454,1.488
								c-0.954,0.241-1.947,0.255-2.913,0.124c-0.963-0.152-1.914-0.447-2.758-0.959
								C419.208,401.92,418.438,401.173,418.167,400.243z"/>
						</g>
						<g>
							<path style="fill:#83A362;" d="M429.253,383.507c0.488,0.431,0.643,0.996,0.638,1.564c-0.031,0.557-0.26,1.184-0.855,1.479
								c-0.132-0.633-0.154-1.045-0.144-1.521C428.926,384.563,428.966,384.091,429.253,383.507z"/>
						</g>
					</g>
					<path style="fill:#272525;" d="M404.257,395.027c0-2.414,1.957-4.371,4.371-4.371c2.414,0,4.371,1.957,4.371,4.371
						c0,2.414-1.957,4.372-4.371,4.372C406.214,399.399,404.257,397.441,404.257,395.027z"/>
				</g>
				<g>
					<g>
						<path style="fill:#91643A;" d="M251.407,415.475c14.032-12.027,12.601-35.509,20.618-50.973
							c4.296-8.877,8.608-18.025,17.469-22.336c21.19-10.31,63.286-6.014,70.159-1.432c6.014,4.009,30.354,20.045,36.94,23.481
							c4.009,2.005,13.85,5.788,16.141,9.511c-7.94-1.475-14.423,4.234-16.427,7.099c-4.009,5.44-4.582,12.026-7.445,18.04
							c-3.15,6.301-5.442,12.315-10.024,17.755c-4.581,5.154-11.454,10.022-17.754,13.459
							c-24.341,12.887-51.259,10.023-76.459,2.005c-9.164-2.864-19.759-7.159-27.491-13.459L251.407,415.475z"/>
					</g>
					<g>
						<path style="fill:#594B3D;" d="M263.149,405.454c2.252,1.641,4.926,2.543,7.591,3.238c2.682,0.69,5.415,1.14,8.145,1.629
							c5.458,0.999,10.876,2.252,16.264,3.548l4.048,0.94c1.363,0.327,2.702,0.706,4.035,1.1c2.665,0.787,5.298,1.641,7.971,2.287
							c2.669,0.645,5.396,1.052,8.118,0.956c2.773-0.082,5.511-0.256,8.257-0.581c5.483-0.626,10.888-1.808,16.148-3.463
							c5.237-1.656,10.287-4.012,14.717-7.252c4.411-3.224,8.191-7.454,10.241-12.532c1.032-2.511,1.655-5.24,1.774-7.93
							c-0.009-1.372-0.066-2.774,0.034-4.181c0.118-1.388,0.301-2.882,1.236-4.105l-0.016,0.021c1.315-1.88,2.771-3.613,4.276-5.316
							c0.757-0.848,1.539-1.673,2.36-2.462c0.83-0.779,1.664-1.565,2.693-2.142l-0.012,0.007c2.195-1.318,4.545-2.288,6.893-3.239
							c2.356-0.935,4.739-1.798,7.142-2.6c-2.382,0.859-4.742,1.779-7.071,2.77c-2.317,1.003-4.647,2.034-6.766,3.38l0.001-0.001
							l-0.013,0.008c-0.939,0.554-1.757,1.353-2.552,2.138c-0.791,0.799-1.544,1.637-2.287,2.484
							c-1.468,1.704-2.903,3.465-4.157,5.311l-0.005,0.007l-0.011,0.015c-0.77,1.018-0.961,2.429-1.048,3.767
							c-0.078,1.362-0.005,2.735,0.023,4.134c-0.086,2.85-0.689,5.617-1.722,8.247c-2.089,5.271-5.98,9.64-10.473,12.957
							c-4.517,3.335-9.645,5.75-14.961,7.46c-5.315,1.684-10.805,2.831-16.343,3.445c-2.763,0.316-5.566,0.481-8.335,0.55
							c-2.828,0.087-5.637-0.349-8.348-1.017c-2.719-0.661-5.354-1.554-7.995-2.376c-1.32-0.409-2.646-0.804-3.974-1.141
							l-4.041-0.997c-2.69-0.675-5.376-1.358-8.07-1.996c-1.349-0.318-2.693-0.629-4.052-0.915
							c-1.366-0.302-2.693-0.628-4.059-0.894c-2.714-0.555-5.447-1.071-8.122-1.828
							C268.029,408.123,265.362,407.149,263.149,405.454z"/>
					</g>
					<g>
						<path style="fill:#594B3D;" d="M266.325,407.293c-0.344,0.919-0.865,1.513-1.355,2.185c-0.502,0.648-1.027,1.271-1.567,1.881
							c-0.54,0.608-1.095,1.202-1.669,1.777c-0.58,0.564-1.157,1.148-1.838,1.592c0.629-0.509,1.137-1.143,1.652-1.76
							c0.509-0.625,0.994-1.269,1.464-1.922c0.469-0.653,0.921-1.319,1.343-1.996c0.401-0.665,0.859-1.399,1.008-2.026
							L266.325,407.293z"/>
					</g>
					<g>
						<path style="fill:#594B3D;" d="M278.93,410.35c0.037,0.455-0.075,0.841-0.155,1.18c-0.091,0.351-0.196,0.687-0.307,1.02
							c-0.221,0.666-0.464,1.316-0.712,1.964c-0.5,1.294-1.029,2.57-1.561,3.844c-0.555,1.27-1.028,2.546-1.55,3.836l-1.618,3.811
							l1.384-3.899c0.436-1.297,0.844-2.636,1.317-3.927c0.454-1.303,0.904-2.604,1.32-3.913c0.206-0.654,0.407-1.311,0.581-1.966
							c0.087-0.327,0.168-0.656,0.232-0.978c0.06-0.332,0.116-0.631,0.075-0.865L278.93,410.35z"/>
					</g>
					<g>
						<path style="fill:#594B3D;" d="M294.068,413.86c-0.422,3.017-1.144,5.978-1.98,8.883c-0.416,1.453-0.878,2.899-1.327,4.331
							c-0.411,1.439-0.651,2.958-1.282,4.338c0.553-1.412,0.705-2.92,1.04-4.399c0.374-1.471,0.751-2.925,1.085-4.395
							c0.672-2.936,1.221-5.893,1.472-8.877L294.068,413.86z"/>
					</g>
					<g>
						<path style="fill:#594B3D;" d="M309.829,418.006c-0.153,1.4-0.057,2.843-0.022,4.307c0.047,1.477-0.046,2.933-0.073,4.386
							l-0.121,4.365c-0.027,1.453-0.037,2.917-0.206,4.364c0.086-1.455,0.013-2.906-0.044-4.363l-0.129-4.366
							c-0.056-1.457-0.047-2.914-0.176-4.345c-0.116-1.439-0.303-2.908-0.228-4.416L309.829,418.006z"/>
					</g>
					<g>
						<path style="fill:#594B3D;" d="M327.047,419.202c0.738,5.796,3.897,11.118,4.837,16.999c-0.629-2.902-1.809-5.624-2.961-8.349
							c-1.15-2.722-2.307-5.506-2.862-8.482L327.047,419.202z"/>
					</g>
					<g>
						<path style="fill:#594B3D;" d="M346.378,414.868c0.723,1.319,1.118,2.75,1.545,4.109c0.417,1.357,0.955,2.701,1.372,4.083
							c0.449,1.371,0.829,2.767,1.216,4.146c0.404,1.368,0.995,2.689,1.455,4.052c-0.538-1.334-1.201-2.609-1.693-3.975
							c-0.469-1.364-0.924-2.721-1.448-4.055c-0.493-1.347-1.103-2.643-1.61-4.008c-0.511-1.352-0.972-2.691-1.707-3.86
							L346.378,414.868z"/>
					</g>
					<g>
						<path style="fill:#594B3D;" d="M361.408,406.164c1.045,0.918,1.964,2.078,2.7,3.241c0.758,1.175,1.394,2.404,2.02,3.629
							c0.615,1.234,1.245,2.441,1.892,3.659c0.639,1.206,1.396,2.377,1.865,3.674c-0.547-1.266-1.364-2.372-2.082-3.55
							c-0.715-1.168-1.43-2.356-2.113-3.543c-0.696-1.181-1.399-2.355-2.2-3.445c-0.807-1.105-1.666-2.074-2.739-2.911
							L361.408,406.164z"/>
					</g>
					<g>
						<path style="fill:#594B3D;" d="M368.899,395.604c1.159,0.742,2.636,1.033,4.081,1.377c1.486,0.393,2.879,0.841,4.322,1.259
							c1.445,0.406,2.84,0.905,4.308,1.179c1.459,0.301,2.932,0.543,4.416,0.712c-1.491-0.086-2.98-0.246-4.461-0.466
							c-1.487-0.191-2.941-0.62-4.392-0.941c-1.445-0.333-2.923-0.716-4.343-1.007c-1.456-0.27-3.003-0.457-4.436-1.249
							L368.899,395.604z"/>
					</g>
					<g>
						<path style="fill:#594B3D;" d="M380.859,369.465c1.168,1.007,2.316,2.039,3.426,3.117c1.116,1.065,2.161,2.255,3.046,3.515
							c0.907,1.241,1.78,2.497,2.875,3.557c1.111,1.038,2.37,1.945,3.467,3.02c-1.155-1.016-2.446-1.842-3.636-2.838
							c-1.174-1.02-2.133-2.251-3.101-3.435c-0.948-1.205-1.997-2.274-3.159-3.27c-1.149-1.001-2.34-1.959-3.551-2.892
							L380.859,369.465z"/>
					</g>
					<g>
						<path style="fill:#594B3D;" d="M273.458,364.216c3.967-1.977,7.505-4.61,11.045-7.256l0.016-0.012l0.042-0.022
							c0.556-0.298,1.055-0.958,2.021-1.244c0.388-0.089,0.761-0.222,1.322-0.164c0.286,0.035,0.56,0.184,0.739,0.316
							c0.187,0.135,0.329,0.263,0.475,0.385c1.158,0.971,2.337,1.879,3.583,2.738c1.238,0.863,2.512,1.688,3.78,2.531l0.951,0.637
							c0.151,0.101,0.33,0.23,0.459,0.307c0.182,0.117,0.345,0.237,0.501,0.355c0.619,0.473,1.184,0.967,1.778,1.268l-0.038-0.017
							c0.293,0.116,0.584,0.212,0.825,0.228c0.236,0.024,0.451-0.041,0.753-0.165l0.941-0.396l0.936-0.369l3.762-1.502l3.776-1.476
							l1.901-0.715c0.665-0.228,1.219-0.468,2.024-0.649l-0.037,0.007c0.379-0.081,0.804-0.141,1.254-0.061
							c0.454,0.076,0.849,0.302,1.158,0.516c0.309,0.211,0.612,0.451,0.857,0.634c0.315,0.215,0.596,0.435,0.881,0.653l3.351,2.651
							c2.231,1.752,4.468,3.519,6.817,5.045c0.587,0.371,1.191,0.738,1.787,0.989c0.147,0.06,0.295,0.112,0.419,0.139
							c0.131,0.028,0.153,0.021,0.346-0.009c0.31-0.054,0.649-0.142,0.98-0.236c1.334-0.389,2.666-0.885,3.989-1.385
							c2.65-1.009,5.273-2.1,7.922-3.157c0.686-0.261,1.28-0.528,2.082-0.755c0.042-0.007,0.055-0.014,0.13-0.02l0.047-0.003
							c0.007-0.002,0.136,0.007,0.088,0.004l0.032,0.005c0.03,0.002,0.102,0.014,0.196,0.043c0.193,0.059,0.236,0.096,0.351,0.148
							c0.184,0.099,0.348,0.202,0.502,0.31c0.311,0.214,0.6,0.436,0.885,0.664c1.125,0.914,2.176,1.88,3.222,2.852
							c2.085,1.949,4.119,3.94,6.154,5.931c2.069,1.953,3.971,4.076,5.973,6.095c0.993,1.017,1.993,2.027,3.013,3.016
							c1.034,0.968,2.017,2.019,3.228,2.766c-1.27-0.657-2.345-1.627-3.446-2.523c-1.087-0.923-2.153-1.869-3.214-2.82
							c-2.103-1.921-4.257-3.791-6.253-5.817c-2.033-1.989-4.065-3.978-6.136-5.914c-1.037-0.965-2.084-1.925-3.167-2.805
							c-0.271-0.217-0.546-0.429-0.821-0.617c-0.257-0.192-0.629-0.356-0.571-0.335c-0.566,0.161-1.283,0.458-1.924,0.707
							c-2.636,1.052-5.268,2.146-7.936,3.162c-1.337,0.504-2.673,1.004-4.07,1.412c-0.353,0.1-0.703,0.193-1.095,0.261
							c-0.155,0.038-0.494,0.063-0.712,0.001c-0.223-0.049-0.41-0.118-0.593-0.192c-0.717-0.304-1.33-0.685-1.944-1.071
							c-2.423-1.574-4.657-3.343-6.9-5.103l-3.342-2.645c-0.278-0.214-0.56-0.432-0.832-0.618c-0.326-0.24-0.58-0.443-0.858-0.634
							c-0.541-0.393-0.975-0.453-1.632-0.305l-0.819,0.186l0.782-0.179c-0.511,0.116-1.217,0.382-1.823,0.599l-1.888,0.709
							l-3.765,1.472l-3.759,1.5l-0.945,0.373l-0.924,0.389c-0.316,0.136-0.768,0.284-1.209,0.237
							c-0.435-0.036-0.788-0.168-1.121-0.298l-0.02-0.007l-0.019-0.01c-0.766-0.395-1.347-0.922-1.936-1.365
							c-0.147-0.111-0.291-0.216-0.428-0.305c-0.196-0.121-0.323-0.217-0.489-0.326l-0.943-0.633
							c-1.262-0.839-2.541-1.667-3.798-2.542c-1.256-0.866-2.488-1.815-3.659-2.797c-0.301-0.257-0.551-0.474-0.704-0.469
							c-0.2-0.028-0.577,0.063-0.921,0.156c-0.533,0.111-1.073,0.7-1.868,1.091l0.057-0.034c-1.857,1.196-3.714,2.408-5.628,3.53
							C277.495,362.384,275.512,363.397,273.458,364.216z"/>
					</g>
					<g>
						<path style="fill:#594B3D;" d="M298.823,363.493c-1.825,7.481-3.508,15.008-5.025,22.564c-0.755,3.778-1.464,7.567-2.09,11.37
							c-0.619,3.803-1.174,7.62-1.498,11.463c0.241-3.85,0.713-7.682,1.251-11.501c0.544-3.819,1.172-7.626,1.846-11.425
							c1.356-7.598,2.876-15.161,4.544-22.701c0.06-0.27,0.326-0.439,0.596-0.38c0.27,0.06,0.44,0.326,0.381,0.596
							C298.826,363.481,298.824,363.49,298.823,363.493z"/>
					</g>
					<path style="fill:none;stroke:#594B3D;stroke-miterlimit:10;" d="M278.446,361.562"/>
					<g>
						<path style="fill:#594B3D;" d="M279.157,361.688c-1.929,7.192-3.712,14.434-5.307,21.713
							c-0.792,3.642-1.533,7.294-2.165,10.967c-0.617,3.672-1.186,7.365-1.315,11.094c0.047-3.731,0.533-7.443,1.068-11.134
							c0.551-3.69,1.211-7.364,1.923-11.027c1.434-7.325,3.056-14.608,4.829-21.864c0.065-0.269,0.336-0.433,0.603-0.367
							c0.268,0.065,0.434,0.336,0.367,0.604C279.161,361.676,279.158,361.685,279.157,361.688z"/>
					</g>
					<g>
						<path style="fill:#594B3D;" d="M331.313,370.016c-1.255,3.59-2.375,7.248-3.412,10.919c-1.033,3.675-1.972,7.378-2.791,11.107
							c-1.623,7.456-2.854,15.034-3.043,22.686c0.021-7.655,1.09-15.277,2.554-22.788c0.74-3.757,1.6-7.49,2.556-11.2
							c0.962-3.71,2.001-7.393,3.191-11.05c0.086-0.263,0.368-0.406,0.631-0.321c0.262,0.086,0.406,0.368,0.32,0.63
							c-0.001,0.003-0.002,0.006-0.003,0.009L331.313,370.016z"/>
					</g>
					<g>
						<path style="fill:#594B3D;" d="M287.192,355.898c0.46-1.687,1.121-3.233,1.892-4.749c0.776-1.506,1.682-2.941,2.709-4.279
							c2.052-2.679,4.613-4.957,7.521-6.613c-2.821,1.8-5.235,4.182-7.116,6.908c-0.942,1.361-1.756,2.809-2.438,4.311
							c-0.673,1.496-1.248,3.076-1.59,4.637l-0.005,0.024c-0.06,0.27-0.326,0.44-0.597,0.381c-0.27-0.059-0.44-0.325-0.381-0.596
							C287.188,355.915,287.19,355.906,287.192,355.898z"/>
					</g>
					<g>
						<path style="fill:#594B3D;" d="M315.593,359.315c0.567-2.219,1.318-4.342,2.196-6.428c0.884-2.079,1.908-4.1,3.121-6.006
							c1.213-1.902,2.615-3.695,4.265-5.235c1.646-1.538,3.556-2.813,5.665-3.584c-2.079,0.851-3.923,2.186-5.491,3.764
							c-1.572,1.581-2.887,3.398-4.012,5.316c-1.125,1.921-2.06,3.948-2.852,6.025c-0.785,2.075-1.452,4.219-1.916,6.362
							l-0.003,0.016c-0.059,0.27-0.325,0.441-0.595,0.383c-0.271-0.059-0.441-0.325-0.384-0.595
							C315.59,359.328,315.592,359.321,315.593,359.315z"/>
					</g>
					<g>
						<path style="fill:#594B3D;" d="M346.57,364.37c0.599-1.928,1.311-3.783,2.102-5.619c0.793-1.831,1.677-3.623,2.679-5.349
							c1.003-1.723,2.126-3.383,3.435-4.889c1.307-1.498,2.818-2.853,4.583-3.77c-1.725,0.99-3.161,2.395-4.392,3.93
							c-1.231,1.543-2.27,3.228-3.189,4.971c-0.918,1.745-1.716,3.551-2.422,5.39c-0.702,1.837-1.333,3.719-1.831,5.602
							l-0.003,0.011c-0.071,0.268-0.345,0.427-0.612,0.355c-0.267-0.07-0.426-0.345-0.355-0.611
							C346.566,364.384,346.568,364.375,346.57,364.37z"/>
					</g>
				</g>
			</g>
		</g>
	</g>
	<g>
		<ellipse style="opacity:0.5;fill:#D8EFFF;" cx="119.544" cy="444.827" rx="68.114" ry="9.371"/>
		<g>
			<path style="fill:#895C37;" d="M67.358,345.492c-0.52-5.184-3.371-19.701,6.222-17.367c6.48,1.296,18.146,10.888,14.776,18.145
				L67.358,345.492z"/>
			<path style="fill:#895C37;" d="M77.209,413.931c0.26,4.927-0.518,10.889-1.038,15.814c-0.518,3.889-3.629,5.704-6.222,8.556
				c-2.334,2.593-3.629,5.443,1.038,5.962c4.148,0.259,13.739-3.369,16.592-6.223c3.629-4.146,3.629-15.813,3.629-20.738
				L77.209,413.931z"/>
			<path style="fill:#895C37;" d="M184.534,379.195c5.185,3.889,16.333,13.739,13.481,21.516c-1.297,3.37-5.186,5.964-8.814,4.926
				c-4.148-1.295-5.704-6.221-7-10.109L184.534,379.195z"/>
			<path style="fill:#895C37;" d="M128.602,438.365c-2.527,1.166-7.388,4.277-2.333,5.833c2.333,0.583,5.055,0.583,7.583,0.777
				c2.916,0.389,6.027,0.972,9.138,0.389c4.667-0.777,4.667-3.693,4.083-7.777L128.602,438.365z"/>
			<g>
				<g>
					<path style="fill:#FFBBD0;" d="M43.831,373.231c-0.95-2.02-3.64-2.367-6.21-2.157c-0.714,1.704-1.075,3.528-0.854,5.527
						c0.237,2.287,0.91,4.211,1.879,5.896C41.488,379.875,45.03,375.63,43.831,373.231z"/>
				</g>
				<g>
					<path style="fill:#C18752;" d="M187.905,385.676c-2.333-12.963-10.37-26.185-23.332-30.591
						c-9.851-3.112-19.703-1.816-29.813-2.852c-4.667-0.52-24.887-6.223-26.961-6.999l-12.183-2.076
						c-5.186-2.591-12.186-4.146-18.147-4.406c-5.185-0.26-11.148,4.148-15.295,7.259c-5.444,4.407-10.629,8.813-15.554,14
						c-3.149,3.334-7.211,6.804-8.999,11.063c2.57-0.21,5.26,0.138,6.21,2.157c1.199,2.399-2.343,6.644-5.185,9.266
						c2.214,3.852,5.998,6.436,9.787,9.142c5.704,3.889,11.666,8.295,16.074,13.48c5.185,5.962,9.333,11.666,15.555,16.59
						c5.702,4.408,10.888,7.52,17.11,10.631c6.74,3.11,33.96,10.628,41.478,9.332c15.037-2.333,31.368-6.222,39.923-19.702
						C184.794,412.118,190.238,397.082,187.905,385.676z"/>
				</g>
			</g>
			<g>
				<path style="fill:#C18752;" d="M169.24,388.527c-13.481,2.073-22.813,9.333-27.22,22.294c-2.073,5.704-1.815,10.63-0.518,16.332
					c1.036,4.408,3.629,7.26,4.925,11.148c-2.851,1.295-6.48,0.518-9.333,2.852c-4.147,3.889,0.777,5.443,4.148,4.926
					c5.185-0.261,28.256-3.825,33.441-5.381c7.259-2.333,9.203-10.693,10.499-17.692c1.038-6.223,0.909-7.776,1.686-13.998
					c0.26-2.853,2.108-15.298,1.589-17.891"/>
				<path style="fill:#895C37;" d="M169.24,388.527c-5.418,0.891-10.738,2.75-15.205,5.936c-4.47,3.171-7.941,7.612-10.172,12.587
					c-0.563,1.243-1.063,2.515-1.497,3.809c-0.463,1.296-0.826,2.593-1.077,3.929c-0.508,2.665-0.507,5.403-0.142,8.095
					c0.182,1.347,0.432,2.688,0.736,4.02c0.298,1.33,0.768,2.557,1.341,3.796c1.148,2.445,2.725,4.765,3.631,7.461l0.13,0.389
					l-0.373,0.168c-1.627,0.73-3.349,0.831-4.943,1.107c-1.587,0.246-3.164,0.746-4.292,1.715c-0.568,0.545-1.092,1.157-1.307,1.803
					c-0.225,0.643,0.022,1.19,0.629,1.582c1.229,0.751,2.958,0.881,4.467,0.669l0.02-0.003l0.03-0.002
					c3.588-0.275,7.226-0.801,10.831-1.302c3.611-0.518,7.218-1.078,10.816-1.681c3.592-0.615,7.202-1.226,10.724-2.063
					c1.734-0.394,3.341-1.179,4.678-2.327c1.339-1.144,2.4-2.603,3.235-4.181c1.665-3.183,2.497-6.762,3.206-10.322
					c0.697-3.57,1.092-7.19,1.452-10.828c0.388-3.64,0.919-7.253,1.41-10.872c0.242-1.809,0.473-3.62,0.665-5.435
					c0.095-0.908,0.18-1.816,0.239-2.728c0.047-0.908,0.117-1.826-0.015-2.732c0.156,0.902,0.111,1.824,0.088,2.735
					c-0.035,0.913-0.096,1.825-0.167,2.736c-0.144,1.822-0.327,3.641-0.521,5.457c-0.406,3.631-0.8,7.264-1.165,10.891
					c-0.314,3.633-0.667,7.289-1.325,10.9c-0.671,3.589-1.458,7.232-3.149,10.569c-0.846,1.657-1.954,3.222-3.396,4.457
					c-1.428,1.242-3.196,2.108-5.021,2.528c-3.582,0.866-7.179,1.487-10.783,2.121c-3.604,0.619-7.214,1.193-10.831,1.728
					c-3.627,0.51-7.221,1.077-10.92,1.331l0.05-0.005c-0.871,0.129-1.745,0.13-2.612,0.018c-0.864-0.124-1.739-0.337-2.541-0.857
					c-0.393-0.263-0.778-0.632-0.983-1.14c-0.213-0.507-0.178-1.084-0.02-1.544c0.327-0.934,0.949-1.594,1.561-2.189
					c1.411-1.207,3.14-1.682,4.797-1.946c1.654-0.272,3.303-0.383,4.72-1.02l-0.243,0.557c-0.839-2.55-2.378-4.846-3.562-7.379
					c-0.58-1.256-1.089-2.619-1.386-3.977c-0.299-1.353-0.561-2.719-0.725-4.103c-0.341-2.762-0.308-5.597,0.251-8.338
					c0.272-1.365,0.672-2.721,1.151-4.01c0.458-1.309,0.981-2.595,1.569-3.852c2.326-5.029,5.922-9.529,10.534-12.621
					C158.421,391.041,163.805,389.299,169.24,388.527z"/>
			</g>
			<g>
				<path style="fill:#C18752;" d="M47.655,391.12c2.853,0.777,5.186-1.555,6.741-3.371c3.111-3.11,3.369-5.962,2.074-10.109"/>
				<path style="fill:#895C37;" d="M47.655,391.12c0.666,0.084,1.324,0.055,1.935-0.136c0.609-0.189,1.175-0.479,1.691-0.849
					c1.041-0.732,1.906-1.701,2.747-2.702l0.008-0.009l0.017-0.018c1.234-1.272,2.269-2.724,2.618-4.426
					c0.189-0.844,0.216-1.732,0.159-2.628c-0.048-0.899-0.207-1.801-0.361-2.713c0.389,0.839,0.69,1.72,0.9,2.637
					c0.2,0.918,0.267,1.886,0.139,2.852c-0.139,0.961-0.475,1.904-0.977,2.733c-0.489,0.839-1.119,1.569-1.793,2.23l0.025-0.027
					c-0.888,1.011-1.889,1.989-3.113,2.669c-0.613,0.33-1.282,0.589-1.98,0.659C48.979,391.465,48.272,391.386,47.655,391.12z"/>
			</g>
			<path style="fill:#594B3D;" d="M62.302,368.953c0-3.061,2.48-5.54,5.541-5.54c3.061,0,5.542,2.479,5.542,5.54
				c0,3.061-2.481,5.541-5.542,5.541C64.782,374.494,62.302,372.014,62.302,368.953z"/>
			<g>
				<g>
					<path style="fill:#C18752;" d="M76.106,397.535c0.972,1.36,7,4.86,8.166,2.916c0.972-1.361-1.749-3.694-2.722-4.667
						c1.734,0.743,7.015,4.139,8.166,0.973c0.389-1.556-3.305-3.5-4.277-3.889c1.75,0.389,7.971,2.723,8.943,0.389
						c0.778-1.555-2.333-3.499-3.5-4.083c2.139-0.389,3.889,0,6.027-0.972"/>
					<path style="fill:#895C37;" d="M76.106,397.535c0.515,0.588,1.196,0.985,1.846,1.397c0.665,0.396,1.354,0.752,2.062,1.053
						c0.706,0.303,1.439,0.549,2.172,0.689c0.706,0.139,1.555,0.125,1.823-0.38l0.002-0.004l0.011-0.017
						c0.199-0.29,0.16-0.679-0.018-1.07c-0.174-0.389-0.444-0.762-0.74-1.114c-0.597-0.713-1.305-1.328-2.014-2.005l-1.746-1.667
						l2.212,0.978c0.743,0.328,1.4,0.688,2.091,1.012c0.684,0.324,1.374,0.629,2.074,0.858c0.694,0.226,1.421,0.397,2.067,0.334
						c0.651-0.06,1.103-0.397,1.308-1.009l-0.015,0.049c0.063-0.225-0.11-0.604-0.409-0.935c-0.29-0.337-0.657-0.65-1.043-0.938
						c-0.776-0.567-1.66-1.083-2.525-1.462l0.276-0.893c1.288,0.335,2.458,0.731,3.688,1.02c1.209,0.283,2.47,0.522,3.618,0.393
						c0.576-0.078,1.042-0.29,1.229-0.772c0.205-0.396-0.029-0.945-0.395-1.404c-0.754-0.925-1.829-1.655-2.903-2.264l-0.598-0.339
						l0.661-0.1c1.039-0.156,2.073-0.127,3.087-0.168c1.014-0.039,2.027-0.191,2.981-0.574c-0.911,0.475-1.937,0.725-2.961,0.827
						c-1.025,0.111-2.046,0.156-3.024,0.374l0.063-0.439c1.169,0.575,2.276,1.264,3.191,2.274c0.218,0.263,0.428,0.55,0.56,0.907
						c0.137,0.344,0.173,0.804,0.005,1.185c-0.121,0.34-0.401,0.709-0.732,0.906c-0.331,0.211-0.688,0.315-1.033,0.379
						c-1.392,0.226-2.684-0.067-3.949-0.325c-1.256-0.275-2.509-0.676-3.692-0.965l0.276-0.894c0.998,0.422,1.884,0.927,2.756,1.541
						c0.428,0.313,0.851,0.648,1.224,1.082c0.342,0.419,0.768,1.017,0.597,1.819l-0.004,0.02l-0.011,0.029
						c-0.155,0.42-0.421,0.851-0.823,1.143c-0.397,0.298-0.875,0.436-1.316,0.472c-0.893,0.065-1.689-0.159-2.445-0.409
						c-0.756-0.26-1.469-0.589-2.167-0.932c-0.695-0.338-1.382-0.723-2.041-1.024l0.467-0.69c0.663,0.667,1.377,1.357,1.986,2.145
						c0.304,0.396,0.591,0.818,0.791,1.317c0.203,0.472,0.284,1.17-0.106,1.683l0.013-0.02c-0.273,0.439-0.78,0.649-1.207,0.677
						c-0.438,0.041-0.85-0.02-1.246-0.108c-0.79-0.189-1.519-0.509-2.221-0.864c-0.702-0.357-1.374-0.766-2.018-1.212
						C77.21,398.647,76.569,398.168,76.106,397.535z"/>
				</g>
				<g>
					<path style="fill:#C18752;" d="M111.493,377.703c0.917,2.445,4.332,6.518,6.416,4.666c1.75-1.361-0.584-4.666-1.556-5.638
						c1.166,0.193,4.861,1.749,5.639,0.193c1.166-1.749-1.944-3.306-3.111-3.889c1.555-0.193,4.277,0.778,5.832-0.193
						c2.139-1.361,0.389-2.917-1.555-3.695"/>
					<path style="fill:#895C37;" d="M111.493,377.703c0.555,1.159,1.319,2.2,2.205,3.1c0.447,0.443,0.929,0.851,1.442,1.182
						c0.513,0.321,1.091,0.558,1.624,0.52c0.265-0.017,0.509-0.106,0.72-0.259c0.101-0.077,0.203-0.166,0.327-0.283
						c0.065-0.082,0.141-0.172,0.191-0.286c0.215-0.433,0.134-1.016-0.046-1.567c-0.383-1.107-1.132-2.184-1.943-3.036l-1.037-1.091
						l1.456,0.275c0.564,0.106,1.015,0.258,1.498,0.386c0.475,0.131,0.947,0.253,1.414,0.341c0.465,0.086,0.935,0.146,1.356,0.121
						c0.434-0.025,0.738-0.162,0.854-0.398l0.012-0.025l0.018-0.027c0.197-0.295,0.231-0.563,0.102-0.878
						c-0.129-0.315-0.41-0.632-0.727-0.915c-0.65-0.568-1.45-1.018-2.27-1.441l-1.345-0.694l1.483-0.113
						c1.065-0.081,1.973,0.16,2.897,0.259c0.908,0.11,1.846,0.186,2.628-0.143c0.364-0.167,0.765-0.449,0.985-0.771
						c0.231-0.328,0.212-0.758-0.024-1.133c-0.478-0.75-1.326-1.262-2.156-1.677c0.883,0.305,1.786,0.708,2.411,1.508
						c0.317,0.386,0.435,1.036,0.147,1.523c-0.276,0.483-0.663,0.787-1.131,1.041c-0.956,0.457-1.984,0.406-2.928,0.353
						c-0.945-0.06-1.907-0.209-2.724-0.111l0.139-0.808c0.85,0.41,1.716,0.852,2.498,1.494c0.386,0.326,0.768,0.707,1.008,1.258
						c0.266,0.546,0.171,1.319-0.179,1.791l0.03-0.053c-0.158,0.324-0.454,0.592-0.759,0.732c-0.307,0.147-0.611,0.195-0.899,0.22
						c-0.576,0.042-1.103-0.039-1.616-0.138c-0.512-0.102-1.004-0.236-1.49-0.374c-0.477-0.134-0.976-0.296-1.392-0.378l0.419-0.815
						c0.937,1.017,1.649,2.132,2.085,3.462c0.195,0.651,0.299,1.457-0.098,2.184c-0.092,0.175-0.226,0.333-0.381,0.483
						c-0.115,0.096-0.26,0.214-0.421,0.32c-0.322,0.206-0.712,0.321-1.089,0.323c-0.765,0-1.41-0.342-1.956-0.723
						c-0.55-0.391-1.016-0.864-1.432-1.369C112.58,380.057,111.883,378.935,111.493,377.703z"/>
				</g>
				<g>
					<path style="fill:#C18752;" d="M122.77,412.311c0.194,1.166,3.888,6.806,5.249,4.472c0.583-0.972-1.944-5.444-2.722-6.416
						c1.167,1.167,5.639,5.055,6.805,1.944c0.583-1.361-2.333-4.083-3.305-4.861c1.166,0.973,3.499,1.751,4.861,0.584
						c1.944-1.75-1.167-3.694-2.528-4.666"/>
					<path style="fill:#895C37;" d="M122.77,412.311c0.19,0.602,0.567,1.117,0.905,1.64c0.354,0.516,0.738,1.01,1.153,1.472
						c0.413,0.462,0.866,0.891,1.35,1.234c0.476,0.344,1.071,0.554,1.363,0.233c0.074-0.065,0.165-0.199,0.198-0.27
						c0.046-0.1,0.022-0.081,0.031-0.131c0.005-0.053,0.003-0.113-0.002-0.178c-0.024-0.259-0.107-0.55-0.204-0.83
						c-0.198-0.567-0.46-1.128-0.741-1.677c-0.561-1.086-1.188-2.218-1.891-3.146l0.696-0.624c0.842,0.798,1.764,1.56,2.745,2.157
						c0.49,0.296,1.003,0.555,1.512,0.698c0.509,0.147,0.998,0.149,1.303-0.087c0.158-0.116,0.294-0.294,0.395-0.517
						c0.116-0.251,0.129-0.341,0.088-0.576c-0.094-0.447-0.401-0.947-0.729-1.405c-0.678-0.92-1.527-1.777-2.406-2.53l0.529-0.647
						c0.652,0.563,1.512,0.97,2.381,1.116c0.862,0.154,1.802-0.038,2.323-0.722c0.262-0.322,0.35-0.723,0.222-1.136
						c-0.123-0.411-0.398-0.799-0.708-1.146c-0.63-0.696-1.407-1.272-2.152-1.875c0.816,0.502,1.644,0.998,2.361,1.671
						c0.355,0.336,0.694,0.718,0.895,1.213c0.217,0.487,0.148,1.15-0.192,1.584c-0.626,0.925-1.835,1.218-2.837,1.085
						c-1.027-0.123-1.99-0.509-2.827-1.149l0.529-0.647c0.974,0.78,1.853,1.625,2.636,2.62c0.379,0.508,0.751,1.041,0.925,1.775
						c0.102,0.357,0.014,0.889-0.149,1.176c-0.145,0.324-0.369,0.654-0.695,0.898c-0.684,0.513-1.538,0.439-2.162,0.26
						c-0.65-0.191-1.217-0.493-1.753-0.821c-1.065-0.673-2.016-1.449-2.894-2.334l0.697-0.623c0.783,1.105,1.354,2.203,1.901,3.375
						c0.261,0.586,0.503,1.183,0.688,1.815c0.088,0.319,0.17,0.643,0.186,1.013c0.003,0.093,0,0.189-0.015,0.294
						c-0.011,0.105-0.07,0.279-0.098,0.319c-0.115,0.207-0.218,0.327-0.38,0.471c-0.317,0.283-0.814,0.333-1.163,0.215
						c-0.36-0.107-0.649-0.299-0.914-0.501c-0.525-0.412-0.938-0.911-1.326-1.419C123.806,414.625,123.079,413.545,122.77,412.311z"
						/>
				</g>
				<g>
					<path style="fill:#C18752;" d="M150.767,373.231c1.743,1.243,6.424,4.22,7.777,0.972c0.389-1.36-2.527-3.889-3.499-4.666
						c1.361,0.194,4.082,0.777,5.055-0.584c2.139-2.722-3.11-3.889-4.666-4.666"/>
					<path style="fill:#895C37;" d="M150.767,373.231c1.295,0.758,2.633,1.46,4.029,1.868c0.69,0.197,1.42,0.305,2.047,0.15
						c0.632-0.146,1.055-0.607,1.295-1.215l-0.017,0.048c0.065-0.241-0.108-0.682-0.354-1.054c-0.249-0.381-0.55-0.757-0.877-1.112
						c-0.654-0.714-1.401-1.369-2.153-1.993l-1.399-1.161l1.777,0.286c1.099,0.177,2.152,0.361,3.16,0.294
						c0.494-0.038,0.969-0.161,1.286-0.427c0.139-0.11,0.32-0.343,0.441-0.524c0.124-0.195,0.212-0.4,0.234-0.601
						c0.058-0.398-0.184-0.817-0.554-1.16c-0.368-0.348-0.833-0.619-1.3-0.885c-0.936-0.543-1.989-0.904-2.948-1.458
						c1.04,0.358,2.107,0.62,3.148,1.042c0.52,0.212,1.026,0.477,1.496,0.844c0.453,0.353,0.921,0.935,0.891,1.664
						c-0.011,0.351-0.127,0.672-0.274,0.952c-0.167,0.283-0.296,0.514-0.571,0.768c-0.521,0.465-1.168,0.626-1.754,0.7
						c-1.191,0.14-2.325-0.084-3.393-0.23l0.378-0.875c0.811,0.639,1.557,1.34,2.257,2.113c0.345,0.392,0.683,0.797,0.96,1.274
						c0.251,0.472,0.577,1.021,0.398,1.785l-0.005,0.022l-0.012,0.026c-0.173,0.385-0.414,0.768-0.76,1.06
						c-0.342,0.296-0.777,0.474-1.199,0.543c-0.856,0.135-1.649-0.074-2.374-0.337c-0.731-0.265-1.397-0.647-2.035-1.057
						C151.945,374.171,151.337,373.723,150.767,373.231z"/>
				</g>
			</g>
			<g>
				<g>
					<path style="fill:#C18752;" d="M87.383,408.618c-1.167,5.832-1.75,12.248-2.333,18.081c0,1.944,0,4.084-0.583,5.833
						c-0.778,2.723-2.917,3.499-5.056,4.667c-2.138,1.36-3.888,2.527-5.832,4.082c-2.722,1.944-5.25,4.278-0.584,5.444
						c3.694,0.778,7.972-0.389,11.277-1.361c4.472-0.972,8.75-0.972,11.86-4.472c3.111-3.5,5.639-7.582,7.583-11.86
						c3.111-7.388,4.277-14.193,3.694-22.165"/>
				</g>
				<g>
					<defs>
						<path id="SVGID_00000155845697650599201640000016315598997531334306_" d="M87.383,408.618
							c-1.167,5.832-1.75,12.248-2.333,18.081c0,1.944,0,4.084-0.583,5.833c-0.778,2.723-2.917,3.499-5.056,4.667
							c-2.138,1.36-3.888,2.527-5.832,4.082c-2.722,1.944-5.25,4.278-0.584,5.444c3.694,0.778,7.972-0.389,11.277-1.361
							c4.472-0.972,8.75-0.972,11.86-4.472c3.111-3.5,5.639-7.582,7.583-11.86c3.111-7.388,4.277-14.193,3.694-22.165"/>
					</defs>
					<clipPath id="SVGID_00000183237814881430970660000016375190849008459925_">
						<use xlink:href="#SVGID_00000155845697650599201640000016315598997531334306_"  style="overflow:visible;"/>
					</clipPath>
					<g style="clip-path:url(#SVGID_00000183237814881430970660000016375190849008459925_);">
						<g>
							<path style="fill:#895C37;" d="M75.33,442.253c-0.938,0.653-1.792,1.339-2.5,2.151c-0.355,0.4-0.655,0.841-0.876,1.317
								c-0.216,0.478-0.311,1.012-0.254,1.586c-0.301-0.501-0.339-1.151-0.183-1.735c0.146-0.593,0.479-1.112,0.86-1.562
								c0.394-0.441,0.845-0.823,1.348-1.117C74.224,442.597,74.759,442.355,75.33,442.253z"/>
						</g>
						<g>
							<path style="fill:#895C37;" d="M79.282,442.707c-0.612,0.181-1.129,0.498-1.511,0.94c-0.377,0.443-0.664,0.962-0.88,1.52
								c-0.227,0.553-0.381,1.142-0.534,1.736c-0.146,0.598-0.254,1.208-0.38,1.832c-0.123-0.627-0.13-1.269-0.075-1.906
								c0.05-0.64,0.198-1.273,0.433-1.885c0.248-0.602,0.594-1.195,1.118-1.628C77.963,442.875,78.645,442.637,79.282,442.707z"/>
						</g>
					</g>
				</g>
			</g>
			<g>
				<g>
					<path style="fill:#C18752;" d="M76.884,353.205c-0.194-4.861,1.361-12.639,5.639-15.555c4.861-3.111,11.86-4.277,17.498-4.277
						c4.472,0,10.694,0.389,11.666,5.444c0.972,5.249-0.194,10.692-2.333,15.165c-2.139,4.473-5.25,8.36-8.943,11.472"/>
					<path style="fill:#895C37;" d="M76.884,353.205c-0.114-1.657-0.033-3.329,0.196-4.98c0.227-1.652,0.593-3.291,1.152-4.876
						c0.57-1.576,1.33-3.113,2.43-4.429c0.547-0.657,1.185-1.253,1.924-1.719c0.711-0.453,1.457-0.862,2.216-1.226
						c3.049-1.461,6.36-2.244,9.676-2.699c3.333-0.425,6.684-0.535,10.056-0.159c1.674,0.238,3.39,0.647,4.894,1.607
						c0.744,0.48,1.415,1.117,1.892,1.888c0.486,0.759,0.757,1.66,0.879,2.5c0.534,3.36,0.265,6.806-0.656,10.042
						c-1.834,6.501-5.944,12.176-11.133,16.3c2.461-2.227,4.658-4.737,6.418-7.527c1.777-2.773,3.185-5.789,3.972-8.97
						c0.78-3.17,1.057-6.49,0.503-9.69c-0.204-1.581-1.063-2.924-2.391-3.739c-1.314-0.828-2.913-1.208-4.509-1.421
						c-3.223-0.392-6.56-0.318-9.808,0.07c-3.257,0.402-6.476,1.188-9.471,2.493c-0.748,0.333-1.469,0.703-2.17,1.123
						c-0.678,0.4-1.285,0.934-1.814,1.536c-1.07,1.206-1.844,2.672-2.451,4.19C77.475,346.573,76.903,349.891,76.884,353.205z"/>
				</g>
				<g>
					<path style="fill:#FFBBD0;" d="M84.272,355.342c1.75-0.972,3.5-3.499,5.056-3.693c-0.195,1.944-1.556,3.889-1.944,5.638
						c2.527-0.776,4.666-2.527,7.388-2.916c-0.194,1.75-2.528,3.306-3.889,4.472c1.944,0.389,4.083-0.777,5.833-0.388
						c-0.194,1.749-1.75,2.721-3.111,3.693c8.166,2.139,15.943-11.86,16.332-18.859c0.778-11.083-15.943-9.722-20.804-3.306
						c-2.333,2.723-3.111,6.806-3.889,10.11L84.272,355.342z"/>
				</g>
			</g>
		</g>
	</g>
	<g>
		<ellipse style="opacity:0.5;fill:#D8EFFF;" cx="226.545" cy="310.827" rx="97.659" ry="12.016"/>
		<g>
			<g>
				<g>
					<path style="fill:#FFD385;" d="M191.61,182.582c-2.683-1.073-6.975-1.073-7.512,2.951c-0.269,2.683,3.22,6.439,4.561,8.585
						c3.449,5.174,1.698,9.826-1.906,13.821c2.411,1.873,6.339,2.522,9.741,2.54C202.378,201.984,202.782,186.999,191.61,182.582z"
						/>
				</g>
				<path style="fill:#CCA05A;" d="M183.83,210.75c-11.535,9.926-23.07,19.316-33.265,30.583
					c-9.39,10.462-15.56,20.388-15.024,34.874c0.269,12.877,11.268,24.949,24.412,26.022c7.78,0.805,15.561,2.416,22.804-0.805
					l-5.098-7.779c-6.17,1.072-13.682,0.268-19.315-2.414c-6.17-2.951-8.316-8.853-9.121-15.023
					c-0.805-5.902-0.269-12.34,1.878-17.975c2.683-7.242,6.976-11.268,12.341-16.632c10.73-10.194,23.339-18.778,32.46-30.314
					c0.203-0.262,0.4-0.531,0.592-0.808c-3.402-0.018-7.33-0.667-9.741-2.54C185.872,208.915,184.884,209.855,183.83,210.75z"/>
			</g>
			<g>
				<g>
					<g>
						<path style="fill:#CC6633;" d="M199.299,246.301c3.761-1.583,6.928-4.949,10.293-6.927c1.979-1.386,8.115-5.345,10.49-4.354
							c2.77,1.188,1.583,7.917,3.167,10.291c2.771,4.553,7.719,1.188,10.886-0.989c4.354-2.97,7.521-6.73,11.678-9.896
							c3.959-2.97,6.334-2.97,10.49-0.792c9.501,5.146,20.783-5.146,16.824-15.24c-2.435-6.15-8.439-10.128-14.999-11.589
							c-2.561,1.429-5.254,2.716-8.036,4.214c-7.779,4.023-15.559,6.975-23.607,9.389c-11.804,3.756-24.145,10.194-34.606,16.901
							c-0.943,0.609-1.829,1.257-2.678,1.927c0.236,1.833,0.746,3.547,1.39,4.69C192.174,246.895,196.331,247.686,199.299,246.301z"
							/>
					</g>
					<g>
						<path style="fill:#FFD385;" d="M310.734,202.955c1.188-1.386,3.563-4.355,0.99-5.344c-1.386-0.792-4.157,0.99-5.542,1.188
							c0.197-0.989,1.781-2.771,1.188-3.761c-0.99-1.583-2.573,0.594-3.959,0.792c0.198-1.98,1.781-4.157,1.188-6.136
							c-1.98-0.198-2.573,1.979-3.563,3.167c0-2.376,0-6.334-1.781-7.917c-0.99,2.573-0.594,5.344-1.188,7.917
							c-0.594-0.594-2.772-2.573-3.761-2.177c-1.386,0.594,0,2.771,0.594,3.563c-1.188-0.198-3.365-1.584-4.355-0.396
							c-0.792,0.99-1.802,2.969-1.011,3.563c-2.177-0.792-2.354-1.583-4.531-2.177c-1.584-0.594-6.532-1.188-3.761,1.781
							c-0.792-0.99-2.573-2.375-3.959-2.573c-2.177-0.198-3.167,1.386-1.583,3.167c-1.68-1.008-3.306-1.94-5.002-2.786
							c-0.586,1.172-1.263,2.291-2.096,3.316c-3.064,4.032-6.616,6.51-10.475,8.664c6.561,1.461,12.564,5.438,14.999,11.589
							c3.959,10.094-7.323,20.387-16.824,15.24c-4.156-2.178-6.531-2.178-10.49,0.792c-4.156,3.166-7.323,6.927-11.678,9.896
							c-3.167,2.176-8.115,5.542-10.886,0.989c-1.584-2.375-0.396-9.104-3.167-10.291c-2.375-0.99-8.512,2.969-10.49,4.354
							c-3.365,1.979-6.532,5.344-10.293,6.927c-2.969,1.385-7.125,0.594-8.709-2.376c-0.644-1.143-1.153-2.857-1.39-4.69
							c-7.018,5.546-10.901,13.095-13.371,21.343c4.159-3.057,10.143-5.143,12.584,0.172c1.781,3.959-3.563,6.135-2.771,9.697
							c0.594,2.574,5.542,1.781,7.521,3.564c5.345,4.947-2.375,14.25-6.928,16.625c-4.248,2.197-9.255,2.871-13.656,1.311
							c0.271,3.685,0.801,7.119,1.593,10.551c1.073,4.828,2.414,6.438,7.779,6.975c10.463,1.072,20.657,0,30.852,1.072
							c5.901,0.537,11.804,0.27,17.438,0.805c5.901,0.537,12.072,0.537,17.705,0c2.951-0.268,5.902-0.535,9.121-0.535
							c2.415,0,5.902-1.074,8.585-0.27c1.878-5.096,0.268-10.998-6.17-8.316l-21.193,0.27c10.999-8.586,19.584-20.389,32.192-27.096
							c-1.073,6.438-1.342,13.949-1.609,20.389c-0.268,4.828-1.342,10.463-0.806,15.023c4.024,0.267,8.585,1.34,12.609,1.34
							c5.901-0.268,1.073-5.633-1.61-7.779c-1.072-0.805-1.609,0.27-2.146-1.072c-0.269-0.27,0.268-2.414,0.268-2.951
							c0-1.609,0.268-3.219,0.536-4.828c0.269-2.684,0.536-5.367,0.805-8.049c0.805-5.902,1.609-11,5.097-15.828
							c3.488-5.365,6.976-10.463,11.268-15.023c5.098-5.902,8.316-10.463,9.39-18.242c0.536-4.561,0.805-9.121,0.805-13.414
							c0-1.877-0.536-4.023,0-5.633c1.073-2.146,3.22-3.488,4.561-5.366c2.683-2.95,8.048-7.243,9.121-10.999
							c0.29-1.087,0.399-2.393,0.4-3.799C316.302,199.515,314.183,200.832,310.734,202.955z"/>
					</g>
				</g>
				<g>
					<path style="fill:#CC6633;" d="M277.284,194.443c1.386,0.198,3.167,1.583,3.959,2.573c-2.772-2.969,2.177-2.375,3.761-1.781
						c2.177,0.594,2.354,1.385,4.531,2.177c-0.791-0.594,0.219-2.573,1.011-3.563c0.989-1.188,3.167,0.198,4.355,0.396
						c-0.594-0.792-1.98-2.969-0.594-3.563c0.989-0.396,3.167,1.583,3.761,2.177c0.594-2.573,0.197-5.344,1.188-7.917
						c1.781,1.583,1.781,5.542,1.781,7.917c0.989-1.188,1.583-3.365,3.563-3.167c0.594,1.979-0.989,4.156-1.188,6.136
						c1.386-0.198,2.969-2.375,3.959-0.792c0.594,0.99-0.99,2.771-1.188,3.761c1.385-0.198,4.156-1.979,5.542-1.188
						c2.572,0.99,0.197,3.958-0.99,5.344c3.449-2.122,5.568-3.44,8.436-3.783c0.003-3.801-0.814-8.359-1.205-11.493
						c-0.269-2.951,0-8.584-1.878-10.999c-2.414-2.951-8.853-1.073-12.34-1.073c-4.293-0.269-9.121-0.269-13.683-0.269
						c-7.243-0.268-11.267-0.268-14.754,7.78c-1.838,3.676-2.746,7.971-4.611,11.707c1.696,0.845,3.322,1.778,5.002,2.786
						C274.117,195.829,275.107,194.246,277.284,194.443z"/>
				</g>
			</g>
			<g>
				<path style="fill:#FFD385;" d="M179.328,251.583c-8.435,20.176-7.838,32.137-5.692,46.623
					c0.806,5.633,1.342,12.877,8.049,13.949c4.828,0.807,34.875,1.074,45.068,0.537c1.61,0,5.366,0.27,6.439-0.805
					c2.951-3.756-1.609-8.584-4.828-9.121c-4.829-1.072-11.804-2-16.364-0.658c1.341-3.488,17.98-12.658,12.608-31.533
					c-3.212-11.287-15.56-20.658-27.096-15.561"/>
				<path style="fill:#CCA05A;" d="M179.328,251.583c-3.677,8.994-6.43,18.495-6.74,28.222c-0.195,4.851,0.192,9.705,0.838,14.519
					c0.329,2.4,0.693,4.824,1.053,7.219c0.4,2.37,0.903,4.777,2.129,6.782c0.608,0.994,1.413,1.856,2.401,2.438
					c0.981,0.602,2.108,0.911,3.28,1.046c2.385,0.25,4.83,0.323,7.255,0.414c4.861,0.157,9.729,0.226,14.596,0.26
					c4.867,0.029,9.735,0.022,14.599-0.053c2.431-0.039,4.864-0.094,7.286-0.202c1.268-0.083,2.466,0.042,3.66-0.009
					c0.594-0.017,1.186-0.055,1.75-0.147c0.549-0.09,1.134-0.257,1.409-0.527l-0.038,0.043c0.682-0.845,0.982-1.921,0.803-2.985
					c-0.167-1.065-0.732-2.079-1.462-2.933c-0.735-0.853-1.649-1.579-2.657-2.051c-0.252-0.118-0.51-0.216-0.77-0.291
					c-0.13-0.036-0.26-0.069-0.391-0.092l-0.455-0.098l-1.742-0.352c-2.33-0.436-4.686-0.746-7.046-0.858
					c-2.351-0.098-4.742-0.028-6.965,0.601l-0.903,0.256l0.37-0.834c0.369-0.831,0.911-1.353,1.421-1.917
					c0.521-0.547,1.054-1.067,1.583-1.589c1.061-1.04,2.107-2.081,3.1-3.169c1.987-2.17,3.776-4.527,5.107-7.139
					c1.34-2.602,2.197-5.451,2.452-8.369c0.261-2.917-0.057-5.879-0.819-8.72c-1.501-5.673-5.152-10.769-10.04-14.067
					c-2.449-1.638-5.247-2.797-8.184-3.186c-2.932-0.4-5.972,0.034-8.698,1.219c2.703-1.234,5.75-1.73,8.717-1.379
					c2.972,0.338,5.828,1.459,8.341,3.075c5.024,3.248,8.84,8.376,10.425,14.186c0.806,2.886,1.165,5.92,0.928,8.928
					c-0.232,3.008-1.088,5.963-2.441,8.656c-1.346,2.702-3.151,5.147-5.162,7.364c-1.006,1.111-2.064,2.17-3.121,3.214
					c-0.528,0.522-1.056,1.042-1.557,1.572c-0.487,0.523-1.007,1.093-1.234,1.634l-0.533-0.578c2.387-0.682,4.843-0.749,7.252-0.659
					c2.415,0.105,4.808,0.414,7.175,0.847l1.772,0.352l0.421,0.09c0.165,0.028,0.324,0.068,0.482,0.111
					c0.314,0.09,0.616,0.204,0.906,0.338c1.158,0.54,2.158,1.334,2.985,2.283c0.816,0.952,1.479,2.097,1.692,3.403
					c0.235,1.301-0.16,2.723-0.987,3.736l-0.026,0.032l-0.012,0.011c-0.631,0.573-1.306,0.677-1.936,0.807
					c-0.637,0.107-1.263,0.147-1.885,0.167c-1.24,0.055-2.479-0.065-3.643,0.021c-2.443,0.105-4.88,0.148-7.318,0.181
					c-4.875,0.059-9.748,0.05-14.621,0.004c-4.873-0.051-9.745-0.135-14.619-0.31c-2.439-0.1-4.868-0.179-7.326-0.443
					c-1.24-0.147-2.518-0.49-3.615-1.178c-1.108-0.669-2.001-1.652-2.649-2.738c-1.305-2.195-1.779-4.68-2.164-7.086
					c-0.339-2.425-0.675-4.821-0.983-7.249c-0.601-4.84-0.944-9.737-0.698-14.624C172.552,269.98,175.497,260.509,179.328,251.583z"
					/>
			</g>
			<g>
				<path style="fill:#CC6633;" d="M186.236,290.637c4.553-2.375,12.272-11.678,6.928-16.625c-1.979-1.783-6.928-0.99-7.521-3.564
					c-0.791-3.563,4.553-5.738,2.771-9.697c-2.441-5.314-8.425-3.228-12.584-0.172c-1.307,4.365-2.225,8.924-2.999,13.482
					c-0.805,5.902-0.805,11.805-0.268,17.707c0.004,0.061,0.012,0.119,0.017,0.18C176.981,293.508,181.988,292.835,186.236,290.637z
					"/>
			</g>
			<g>
				<path style="fill:#FFD385;" d="M250.897,264.94c1.609,8.586,5.098,16.633,6.438,25.486c0.805,6.17,1.878,12.34,3.22,18.242
					c0.536,2.951,0.268,4.023,3.487,4.293c2.147,0.535,5.365,0,8.048,0s5.634,1.34,6.17-1.611c0.268-2.682-2.95-6.438-5.634-6.438
					c0.806-7.779,1.878-15.56,2.684-23.34c0.536-4.024,2.966-19.041,2.683-19.852"/>
				<path style="fill:#CCA05A;" d="M250.897,264.94c0.881,4.177,2.166,8.243,3.443,12.313c1.278,4.068,2.479,8.184,3.223,12.414
					c0.622,4.242,1.3,8.421,2.107,12.608c0.401,2.09,0.848,4.17,1.318,6.244l0.275,1.601c0.091,0.512,0.19,1.021,0.389,1.392
					c0.345,0.729,1.417,0.889,2.43,0.979l0.035,0.003l0.04,0.009c1.146,0.267,2.411,0.233,3.662,0.177
					c1.259-0.063,2.529-0.178,3.826-0.209c1.329-0.067,2.639,0.227,3.836,0.295c0.596,0.034,1.182-0.007,1.58-0.244
					c0.396-0.227,0.625-0.694,0.728-1.256l-0.006,0.038c0.063-0.654-0.109-1.362-0.399-2.019c-0.291-0.659-0.696-1.281-1.173-1.838
					c-0.479-0.555-1.031-1.05-1.642-1.432c-0.607-0.379-1.285-0.644-1.943-0.65l-0.501-0.005l0.052-0.493
					c0.757-7.227,1.786-14.41,2.64-21.611c0.409-3.625,1.083-7.184,1.653-10.768l0.862-5.373l0.402-2.69
					c0.108-0.897,0.292-1.797,0.258-2.701c0.071,0.905-0.077,1.813-0.148,2.715c-0.091,0.903-0.198,1.805-0.31,2.705l-0.7,5.398
					l-0.733,5.393c-0.25,1.807-0.517,3.574-0.667,5.389c-0.705,7.227-1.615,14.429-2.358,21.638l-0.449-0.498
					c0.903,0.007,1.72,0.342,2.426,0.772c0.708,0.438,1.325,0.988,1.863,1.603c0.535,0.618,0.992,1.306,1.333,2.063
					c0.334,0.756,0.567,1.599,0.489,2.498l-0.001,0.012l-0.005,0.026c-0.111,0.675-0.44,1.486-1.172,1.917
					c-0.716,0.413-1.468,0.417-2.127,0.393c-1.342-0.078-2.546-0.334-3.77-0.282c-1.249,0.021-2.516,0.127-3.799,0.185
					c-1.283,0.046-2.595,0.089-3.937-0.227l0.074,0.012c-0.549-0.052-1.105-0.117-1.678-0.302c-0.561-0.164-1.201-0.58-1.491-1.183
					c-0.297-0.579-0.379-1.142-0.476-1.674l-0.257-1.555c-0.46-2.088-0.896-4.182-1.286-6.283c-0.805-4.19-1.389-8.452-1.932-12.659
					C255.584,281.383,252.311,273.372,250.897,264.94z"/>
			</g>
			<g>
				<path style="fill:#CCA05A;" d="M281.638,249.667c0.031,0.733,0.188,1.454,0.425,2.139c0.238,0.68,0.57,1.344,1.058,1.846
					c0.477,0.524,1.197,0.7,1.743,0.301c0.548-0.368,0.954-0.98,1.29-1.596c0.645-1.254,0.978-2.686,1.151-4.103
					c0.165-1.42,0.158-2.881-0.145-4.231l0.813-0.255c0.583,1.476,1,3.026,1.784,4.217c0.097,0.135,0.205,0.259,0.299,0.327
					c0.105,0.07,0.12,0.058,0.135,0.053c0.081-0.004,0.33-0.32,0.461-0.629c0.287-0.628,0.512-1.425,0.685-2.137
					c0.318-1.462,0.407-3.005,0.364-4.533c-0.056-1.53-0.251-3.063-0.608-4.551l-0.749-3.111l1.583,2.766
					c0.483,0.845,0.855,1.674,1.29,2.48c0.429,0.792,0.886,1.603,1.472,2.173c0.292,0.285,0.603,0.445,0.846,0.368
					c0.269-0.067,0.562-0.391,0.779-0.748c0.451-0.747,0.762-1.583,0.921-2.466c0.331-1.768,0.203-3.621-0.086-5.425
					c-0.313-1.805-0.838-3.589-1.654-5.251c0.968,1.584,1.594,3.364,2.028,5.176c0.425,1.815,0.615,3.714,0.339,5.607
					c-0.134,0.944-0.436,1.884-0.912,2.739c-0.254,0.417-0.554,0.898-1.185,1.127c-0.314,0.106-0.676,0.066-0.951-0.051
					c-0.281-0.114-0.503-0.282-0.698-0.456c-0.751-0.722-1.207-1.556-1.672-2.374c-0.453-0.817-0.854-1.672-1.3-2.428l0.835-0.346
					c0.393,1.553,0.615,3.138,0.693,4.734c0.077,1.597-0.013,3.208-0.393,4.8c-0.096,0.417-0.214,0.776-0.332,1.156
					c-0.122,0.387-0.26,0.774-0.447,1.161c-0.095,0.193-0.202,0.388-0.35,0.582c-0.149,0.187-0.335,0.406-0.685,0.523
					c-0.366,0.124-0.763-0.037-0.962-0.204c-0.22-0.169-0.361-0.354-0.491-0.535c-0.922-1.455-1.276-2.998-1.832-4.426l0.813-0.255
					c0.325,1.522,0.233,3.041,0.018,4.52c-0.24,1.477-0.631,2.94-1.379,4.274c-0.386,0.644-0.833,1.296-1.541,1.709
					c-0.35,0.2-0.801,0.301-1.21,0.186c-0.409-0.107-0.733-0.37-0.985-0.657C281.927,252.659,281.611,251.123,281.638,249.667z"/>
			</g>
			<g>
				<path style="fill:#CC6633;" d="M251.564,240.804c-3.92,0.055-8.109,5.502-9.115,8.664c-1.386,4.355,1.385,5.346,4.948,4.355
					c2.969-0.793,5.938-2.178,7.719-4.553c2.158-3.117,1.663-6.359-1.698-8.043C252.816,240.926,252.193,240.795,251.564,240.804z"
					/>
			</g>
			<path style="fill:#272525;" d="M281.638,195.492c0-2.355,1.909-4.265,4.265-4.265c2.355,0,4.265,1.909,4.265,4.265
				c0,2.355-1.909,4.265-4.265,4.265C283.547,199.756,281.638,197.847,281.638,195.492z"/>
			<path style="fill:#272525;" d="M304.638,195.492c0-2.355,1.909-4.265,4.265-4.265c2.355,0,4.265,1.909,4.265,4.265
				c0,2.355-1.909,4.265-4.265,4.265C306.547,199.756,304.638,197.847,304.638,195.492z"/>
			<g>
				<path style="fill:#CCA05A;" d="M282.041,210.646c0.739,0.256,1.483,0.495,2.236,0.654c0.738,0.15,1.561,0.234,2.155-0.023
					l0.191-0.083l0.133,0.168c1.406,1.79,3.294,3.088,5.183,4.395c0.483,0.335,0.94,0.627,1.441,1.019l1.333,1.108
					c0.875,0.69,1.803,1.413,2.751,1.617c0.979,0.135,2.003-0.221,2.909-0.822c0.899-0.61,1.705-1.412,2.445-2.273
					c1.486-1.722,2.704-3.734,4.347-5.385c-1.371,1.861-2.38,3.947-3.809,5.816c-0.704,0.935-1.478,1.857-2.479,2.57
					c-0.497,0.357-1.05,0.662-1.654,0.861c-0.3,0.104-0.612,0.166-0.955,0.207c-0.161,0.018-0.293,0.018-0.441,0.028
					c-0.216,0.001-0.366-0.013-0.542-0.046c-1.336-0.295-2.283-1.08-3.197-1.811l-1.319-1.122c-0.407-0.323-0.913-0.672-1.366-1.013
					c-1.869-1.349-3.736-2.875-5.077-4.832l0.323,0.086c-0.439,0.17-0.873,0.154-1.277,0.102c-0.405-0.056-0.793-0.158-1.171-0.279
					C283.446,211.346,282.729,211.019,282.041,210.646z"/>
			</g>
			<g>
				<path style="fill:#CCA05A;" d="M290.291,207.021c-0.107,1.265,0.191,2.618,1.063,3.453c0.419,0.416,0.969,0.657,1.534,0.654
					c0.567,0.002,1.13-0.206,1.636-0.518c0.984-0.613,1.581-1.698,1.84-2.877c0.274-1.183,0.314-2.441,0.305-3.712l0.995-0.033
					c0.033,1.46-0.262,2.711-0.288,4c-0.057,1.258,0.061,2.573,1.054,3.201c0.468,0.343,1.032,0.525,1.561,0.361
					c0.534-0.153,1-0.601,1.35-1.116c0.716-1.036,1.132-2.346,1.077-3.663c0.282,1.311-0.023,2.708-0.656,3.927
					c-0.347,0.593-0.835,1.177-1.567,1.456c-0.742,0.292-1.588,0.074-2.198-0.321c-0.278-0.159-0.636-0.44-0.851-0.751
					c-0.229-0.317-0.381-0.67-0.485-1.022c-0.205-0.708-0.239-1.413-0.236-2.098c0.016-1.355,0.284-2.719,0.247-3.909l0.995-0.033
					c-0.013,1.292-0.044,2.626-0.391,3.942c-0.333,1.293-1.084,2.651-2.381,3.309c-0.606,0.316-1.31,0.532-2.033,0.478
					c-0.723-0.047-1.415-0.411-1.857-0.949C290.122,209.708,289.973,208.258,290.291,207.021z"/>
			</g>
			<g>
				<path style="fill:#E589A6;" d="M297.166,204.771c-1-0.375-3.125-1-3.25-2.125c1.125-0.625,2.875-0.375,4.125-0.25
					c0.625,0,3.625,0.125,2.125,1.25L297.166,204.771z"/>
			</g>
			<g>
				<path style="fill:#CC6633;" d="M292.541,176.146c-3.125-0.75-6.625-3.5-9-5.625c-1.25-1.125-2.5-2.125-3.75-3.125
					c-1.25-1.125-2.875-3.125-4.375-3.75c-2-0.875-2.125,2.625-2.5,4.25c-0.375,2.25-0.75,4.75-0.875,7
					c-0.25,3.75,0.75,8.25,3.25,11c0.25,0.375,0.5,0.625,0.875,0.875"/>
			</g>
			<g>
				<path style="fill:#FFD385;" d="M276.916,185.021c-1.625-0.5-2.75-3.625-3.125-5.125c-0.5-2-0.5-4.125-0.375-6
					c0-2.625,0.375-6.375,1.875-8.5c2.75,3.875,8,5.625,10.875,9.375c-1.625,1-3.875-1.5-5.5-0.875c0.375,1.5,2,2.625,2.625,4.125
					c-1.875-0.25-3.5-1.5-5.25-2c-0.25,1.5,1.875,3.375,2.125,5c-1-0.125-1.875-0.5-2.875-0.375c0.25,0.875,1.25,1.625,1.875,2.25
					L276.916,185.021z"/>
			</g>
			<g>
				<path style="fill:#CC6633;" d="M301.003,176.146c3.125-0.75,6.625-3.5,9-5.625c1.25-1.125,2.5-2.125,3.75-3.125
					c1.25-1.125,2.875-3.125,4.375-3.75c2-0.875,2.125,2.625,2.5,4.25c0.375,2.25,0.75,4.75,0.875,7c0.25,3.75-0.75,8.25-3.25,11
					c-0.25,0.375-0.5,0.625-0.875,0.875"/>
			</g>
			<g>
				<path style="fill:#FFD385;" d="M316.628,185.021c1.625-0.5,2.75-3.625,3.125-5.125c0.5-2,0.5-4.125,0.375-6
					c0-2.625-0.375-6.375-1.875-8.5c-2.75,3.875-8,5.625-10.875,9.375c1.625,1,3.875-1.5,5.5-0.875c-0.375,1.5-2,2.625-2.625,4.125
					c1.875-0.25,3.5-1.5,5.25-2c0.25,1.5-1.875,3.375-2.125,5c1-0.125,1.875-0.5,2.875-0.375c-0.25,0.875-1.25,1.625-1.875,2.25
					L316.628,185.021z"/>
			</g>
		</g>
	</g>
</g>
</svg>
